<svg xmlns="http://www.w3.org/2000/svg" xmlns:xlink="http://www.w3.org/1999/xlink" contentStyleType="text/css" height="140px" preserveAspectRatio="none" style="width:416px;height:140px;background:#FFFFFF;" version="1.1" viewBox="0 0 416 140" width="416px" zoomAndPan="magnify"><defs/><g><!--cluster Local--><g id="cluster_Local"><path d="M8.5,6 L50.584,6 A3.75,3.75 0 0 1 53.084,8.5 L60.084,28.2969 L406.5,28.2969 A2.5,2.5 0 0 1 409,30.7969 L409,130.5 A2.5,2.5 0 0 1 406.5,133 L8.5,133 A2.5,2.5 0 0 1 6,130.5 L6,8.5 A2.5,2.5 0 0 1 8.5,6 " fill="none" style="stroke:#000000;stroke-width:1.5;"/><line style="stroke:#000000;stroke-width:1.5;" x1="6" x2="60.084" y1="28.2969" y2="28.2969"/><text fill="#000000" font-family="sans-serif" font-size="14" font-weight="bold" lengthAdjust="spacing" textLength="41.084" x="10" y="20.9951">Local</text></g><!--entity WebApplication--><g id="elem_WebApplication"><rect fill="#F1F1F1" height="36.2969" rx="2.5" ry="2.5" style="stroke:#181818;stroke-width:0.5;" width="133.0186" x="98.5" y="61"/><text fill="#000000" font-family="sans-serif" font-size="14" lengthAdjust="spacing" textLength="113.0186" x="108.5" y="83.9951">Web application</text></g><!--entity LocalDB--><g id="elem_LocalDB"><path d="M267,66.5 C267,56.5 329.9443,56.5 329.9443,56.5 C329.9443,56.5 392.8887,56.5 392.8887,66.5 L392.8887,91.7969 C392.8887,101.7969 329.9443,101.7969 329.9443,101.7969 C329.9443,101.7969 267,101.7969 267,91.7969 L267,66.5 " fill="#F1F1F1" style="stroke:#181818;stroke-width:0.5;"/><path d="M267,66.5 C267,76.5 329.9443,76.5 329.9443,76.5 C329.9443,76.5 392.8887,76.5 392.8887,66.5 " fill="none" style="stroke:#181818;stroke-width:0.5;"/><text fill="#000000" font-family="sans-serif" font-size="14" lengthAdjust="spacing" textLength="105.8887" x="277" y="93.4951">Local database</text></g><!--entity Client--><g id="elem_Client"><ellipse cx="42.7651" cy="49.5" fill="#F1F1F1" rx="8" ry="8" style="stroke:#181818;stroke-width:0.5;"/><path d="M42.7651,57.5 L42.7651,84.5 M29.7651,65.5 L55.7651,65.5 M42.7651,84.5 L29.7651,99.5 M42.7651,84.5 L55.7651,99.5 " fill="none" style="stroke:#181818;stroke-width:0.5;"/><text fill="#000000" font-family="sans-serif" font-size="14" lengthAdjust="spacing" textLength="40.5303" x="22.5" y="113.9951">Client</text></g><!--link Client to WebApplication--><g id="link_Client_WebApplication"><path d="M69.97,79 C81.41,79 80.86,79 92.3,79 " fill="none" id="Client-WebApplication" style="stroke:#181818;stroke-width:1;"/><polygon fill="#181818" points="63.97,79,72.97,83,68.97,79,72.97,75,63.97,79" style="stroke:#181818;stroke-width:1;"/><polygon fill="#181818" points="98.3,79,89.3,75,93.3,79,89.3,83,98.3,79" style="stroke:#181818;stroke-width:1;"/></g><!--link WebApplication to LocalDB--><g id="link_WebApplication_LocalDB"><path d="M237.71,79 C249.36,79 249,79 260.65,79 " fill="none" id="WebApplication-LocalDB" style="stroke:#181818;stroke-width:1;"/><polygon fill="#181818" points="231.71,79,240.71,83,236.71,79,240.71,75,231.71,79" style="stroke:#181818;stroke-width:1;"/><polygon fill="#181818" points="266.65,79,257.65,75,261.65,79,257.65,83,266.65,79" style="stroke:#181818;stroke-width:1;"/></g><!--SRC=[ROsn3i8m34HtVuMLlN-0Aa4PsPcl9geYeYHglI7-dU10go8ytJtT-GhaZicpksH1TFmWhZTxKQGfLdxr8wEK60GQSdACXIixRiWQDoX6BDz7gxUyeVE9daHK_Wv2DC_iXXXyKkiq-QuqnOUk_ntUMqjyfbu0]--></g></svg>