<svg xmlns="http://www.w3.org/2000/svg" xmlns:xlink="http://www.w3.org/1999/xlink" contentStyleType="text/css" height="189px" preserveAspectRatio="none" style="width:609px;height:189px;background:#FFFFFF;" version="1.1" viewBox="0 0 609 189" width="609px" zoomAndPan="magnify"><defs/><g><!--cluster Global--><g id="cluster_Global"><path d="M8.5,71.23 L59.6758,71.23 A3.75,3.75 0 0 1 62.1758,73.73 L69.1758,93.5269 L300.5,93.5269 A2.5,2.5 0 0 1 303,96.0269 L303,164.73 A2.5,2.5 0 0 1 300.5,167.23 L8.5,167.23 A2.5,2.5 0 0 1 6,164.73 L6,73.73 A2.5,2.5 0 0 1 8.5,71.23 " fill="none" style="stroke:#000000;stroke-width:1.5;"/><line style="stroke:#000000;stroke-width:1.5;" x1="6" x2="69.1758" y1="93.5269" y2="93.5269"/><text fill="#000000" font-family="sans-serif" font-size="14" font-weight="bold" lengthAdjust="spacing" textLength="50.1758" x="10" y="86.2251">Global</text></g><!--cluster Local--><g id="cluster_Local"><path d="M429.5,55.73 L471.584,55.73 A3.75,3.75 0 0 1 474.084,58.23 L481.084,78.0269 L599.5,78.0269 A2.5,2.5 0 0 1 602,80.5269 L602,180.23 A2.5,2.5 0 0 1 599.5,182.73 L429.5,182.73 A2.5,2.5 0 0 1 427,180.23 L427,58.23 A2.5,2.5 0 0 1 429.5,55.73 " fill="none" style="stroke:#000000;stroke-width:1.5;"/><line style="stroke:#000000;stroke-width:1.5;" x1="427" x2="481.084" y1="78.0269" y2="78.0269"/><text fill="#000000" font-family="sans-serif" font-size="14" font-weight="bold" lengthAdjust="spacing" textLength="41.084" x="431" y="70.7251">Local</text></g><!--entity WebServer--><g id="elem_WebServer"><rect fill="#F1F1F1" height="36.2969" rx="2.5" ry="2.5" style="stroke:#181818;stroke-width:0.5;" width="100.1104" x="187" y="110.73"/><text fill="#000000" font-family="sans-serif" font-size="14" lengthAdjust="spacing" textLength="80.1104" x="197" y="133.7251">Web server</text></g><!--entity AzureDB--><g id="elem_AzureDB"><path d="M22,116.23 C22,106.23 86.7627,106.23 86.7627,106.23 C86.7627,106.23 151.5254,106.23 151.5254,116.23 L151.5254,141.5269 C151.5254,151.5269 86.7627,151.5269 86.7627,151.5269 C86.7627,151.5269 22,151.5269 22,141.5269 L22,116.23 " fill="#F1F1F1" style="stroke:#181818;stroke-width:0.5;"/><path d="M22,116.23 C22,126.23 86.7627,126.23 86.7627,126.23 C86.7627,126.23 151.5254,126.23 151.5254,116.23 " fill="none" style="stroke:#181818;stroke-width:0.5;"/><text fill="#000000" font-family="sans-serif" font-size="14" lengthAdjust="spacing" textLength="109.5254" x="32" y="143.2251">Azure database</text></g><!--entity Client1--><g id="elem_Client1"><ellipse cx="469.9438" cy="99.23" fill="#F1F1F1" rx="8" ry="8" style="stroke:#181818;stroke-width:0.5;"/><path d="M469.9438,107.23 L469.9438,134.23 M456.9438,115.23 L482.9438,115.23 M469.9438,134.23 L456.9438,149.23 M469.9438,134.23 L482.9438,149.23 " fill="none" style="stroke:#181818;stroke-width:0.5;"/><text fill="#000000" font-family="sans-serif" font-size="14" lengthAdjust="spacing" textLength="53.8877" x="443" y="163.7251">Client 1</text></g><!--entity Client2--><g id="elem_Client2"><ellipse cx="558.9438" cy="99.23" fill="#F1F1F1" rx="8" ry="8" style="stroke:#181818;stroke-width:0.5;"/><path d="M558.9438,107.23 L558.9438,134.23 M545.9438,115.23 L571.9438,115.23 M558.9438,134.23 L545.9438,149.23 M558.9438,134.23 L571.9438,149.23 " fill="none" style="stroke:#181818;stroke-width:0.5;"/><text fill="#000000" font-family="sans-serif" font-size="14" lengthAdjust="spacing" textLength="53.8877" x="532" y="163.7251">Client 2</text></g><!--entity Internet--><g id="elem_Internet"><path d="M331.7718,114.6106 C334.8675,109.5766 338.7961,109.3114 342.6035,113.8012 C345.7115,107.6293 350.0558,107.73 354.2975,112.6007 C357.2135,107.2781 361.4813,106.8007 365.0613,111.916 C368.8098,106.9916 372.6667,105.891 376.654,111.657 C381.6972,106.3937 385.9282,106.5424 388.7707,113.7886 C392.8283,108.6211 397.4861,108.8956 401.1725,114.2271 C408.5104,117.0666 410.2477,124.4227 403.9329,129.6981 C409.7375,136.0997 409.583,141.1833 401.587,145.5416 C399.6328,151.7022 394.099,152.1102 390.3502,147.3958 C387.4104,155.6691 382.9431,156.7111 376.8192,150.3374 C375.8868,156.0536 371.1934,158.2366 366.3054,154.9641 C361.7073,159.1623 356.4243,158.6224 354.4621,152.0624 C347.9423,156.8978 344.7172,154.2637 342.5099,147.5855 C338.3016,152.0411 333.2343,151.5727 330.5627,145.792 C320.9047,144.8193 317.6838,137.5959 324.2799,130.1108 C318.1629,121.1285 321.2557,115.5535 331.7718,114.6106 " fill="#F1F1F1" style="stroke:#181818;stroke-width:0.5;"/><text fill="#000000" font-family="sans-serif" font-size="14" lengthAdjust="spacing" textLength="55.8359" x="337" y="133.7251">Internet</text></g><!--link AzureDB to WebServer--><g id="link_AzureDB_WebServer"><path d="M158.04,128.73 C169.65,128.73 169.27,128.73 180.89,128.73 " fill="none" id="AzureDB-WebServer" style="stroke:#181818;stroke-width:1;"/><polygon fill="#181818" points="152.04,128.73,161.04,132.73,157.04,128.73,161.04,124.73,152.04,128.73" style="stroke:#181818;stroke-width:1;"/><polygon fill="#181818" points="186.89,128.73,177.89,124.73,181.89,128.73,177.89,132.73,186.89,128.73" style="stroke:#181818;stroke-width:1;"/></g><!--link WebServer to Internet--><g id="link_WebServer_Internet"><path d="M293.5,128.73 C304.9,128.73 304.31,128.73 315.71,128.73 " fill="none" id="WebServer-Internet" style="stroke:#181818;stroke-width:1;"/><polygon fill="#181818" points="287.5,128.73,296.5,132.73,292.5,128.73,296.5,124.73,287.5,128.73" style="stroke:#181818;stroke-width:1;"/><polygon fill="#181818" points="321.71,128.73,312.71,124.73,316.71,128.73,312.71,132.73,321.71,128.73" style="stroke:#181818;stroke-width:1;"/></g><!--link Internet to Client2--><g id="link_Internet_Client2"><path d="M376.3587,99.8303 C388.0387,73.0503 408.87,36.04 444.5,17.73 C465.45,6.96 477.07,6 497.5,17.73 C524.25,33.09 538.1591,59.1829 547.0691,84.8029 " fill="none" id="Internet-Client2" style="stroke:#181818;stroke-width:1;"/><polygon fill="#181818" points="373.96,105.33,381.2244,98.6796,375.9589,100.7469,373.8915,95.4814,373.96,105.33" style="stroke:#181818;stroke-width:1;"/><polygon fill="#181818" points="549.04,90.47,549.8617,80.6555,547.3976,85.7474,542.3057,83.2833,549.04,90.47" style="stroke:#181818;stroke-width:1;"/></g><!--link Internet to Client1--><g id="link_Internet_Client1"><path d="M414.07,128.73 C425.68,128.73 425.29,128.73 436.9,128.73 " fill="none" id="Internet-Client1" style="stroke:#181818;stroke-width:1;"/><polygon fill="#181818" points="408.07,128.73,417.07,132.73,413.07,128.73,417.07,124.73,408.07,128.73" style="stroke:#181818;stroke-width:1;"/><polygon fill="#181818" points="442.9,128.73,433.9,124.73,437.9,128.73,433.9,132.73,442.9,128.73" style="stroke:#181818;stroke-width:1;"/></g><!--SRC=[ROwz3i8m38HtFuMLdI6T4H8_4a9YOs1sKgj2H4cLfWmWtftKaD2XdlpTdNFfoTwfOrH75mmvXI_0F95j8j-vR5pPuC3nmL4X3PZn8YIvbX8P6d9i-nmZLvQeI8STl06WBptdOFyrP5E8gFRknZwXbgilw0M_cVdDzAfrOMnHdNpYw3c9NG3WLxzURMQVhXjEUWsNHTJIi23g3m00]--></g></svg>