<svg xmlns="http://www.w3.org/2000/svg" xmlns:xlink="http://www.w3.org/1999/xlink" contentStyleType="text/css" height="555px" preserveAspectRatio="none" style="width:784px;height:555px;background:#FFFFFF;" version="1.1" viewBox="0 0 784 555" width="784px" zoomAndPan="magnify"><defs/><g><!--class IdentityUser--><g id="elem_IdentityUser"><rect codeLine="1" fill="#F1F1F1" height="113.1875" id="IdentityUser" rx="2.5" ry="2.5" style="stroke:#181818;stroke-width:0.5;" width="176.8965" x="105" y="15"/><ellipse cx="146.699" cy="31" fill="#ADD1B2" rx="11" ry="11" style="stroke:#181818;stroke-width:1;"/><path d="M149.6677,36.6406 Q149.0896,36.9375 148.449,37.0781 Q147.8083,37.2344 147.1052,37.2344 Q144.6052,37.2344 143.2771,35.5938 Q141.9646,33.9375 141.9646,30.8125 Q141.9646,27.6875 143.2771,26.0313 Q144.6052,24.375 147.1052,24.375 Q147.8083,24.375 148.449,24.5313 Q149.1052,24.6875 149.6677,24.9844 L149.6677,27.7031 Q149.0427,27.125 148.449,26.8594 Q147.8552,26.5781 147.2302,26.5781 Q145.8865,26.5781 145.199,27.6563 Q144.5115,28.7188 144.5115,30.8125 Q144.5115,32.9063 145.199,33.9844 Q145.8865,35.0469 147.2302,35.0469 Q147.8552,35.0469 148.449,34.7813 Q149.0427,34.5 149.6677,33.9219 L149.6677,36.6406 Z " fill="#000000"/><text fill="#000000" font-family="sans-serif" font-size="14" lengthAdjust="spacing" textLength="85.5654" x="166.6321" y="35.8467">IdentityUser</text><line style="stroke:#181818;stroke-width:0.5;" x1="106" x2="280.8965" y1="47" y2="47"/><ellipse cx="116" cy="60.6484" fill="none" rx="3" ry="3" style="stroke:#038048;stroke-width:1;"/><text fill="#000000" font-family="sans-serif" font-size="14" lengthAdjust="spacing" textLength="62.3711" x="125" y="63.9951">Id: string</text><ellipse cx="116" cy="76.9453" fill="none" rx="3" ry="3" style="stroke:#038048;stroke-width:1;"/><text fill="#000000" font-family="sans-serif" font-size="14" lengthAdjust="spacing" textLength="122.5684" x="125" y="80.292">UserName: string</text><ellipse cx="116" cy="93.2422" fill="none" rx="3" ry="3" style="stroke:#038048;stroke-width:1;"/><text fill="#000000" font-family="sans-serif" font-size="14" lengthAdjust="spacing" textLength="88.1973" x="125" y="96.5889">Email: string</text><ellipse cx="116" cy="109.5391" fill="none" rx="3" ry="3" style="stroke:#038048;stroke-width:1;"/><text fill="#000000" font-family="sans-serif" font-size="14" lengthAdjust="spacing" textLength="150.8965" x="125" y="112.8857">PasswordHash: string</text><line style="stroke:#181818;stroke-width:0.5;" x1="106" x2="280.8965" y1="120.1875" y2="120.1875"/></g><!--class Author--><g id="elem_Author"><rect codeLine="47" fill="#F1F1F1" height="129.4844" id="Author" rx="2.5" ry="2.5" style="stroke:#181818;stroke-width:0.5;" width="368.9863" x="9" y="213"/><ellipse cx="165.6763" cy="229" fill="#ADD1B2" rx="11" ry="11" style="stroke:#181818;stroke-width:1;"/><path d="M168.645,234.6406 Q168.0669,234.9375 167.4263,235.0781 Q166.7856,235.2344 166.0825,235.2344 Q163.5825,235.2344 162.2544,233.5938 Q160.9419,231.9375 160.9419,228.8125 Q160.9419,225.6875 162.2544,224.0313 Q163.5825,222.375 166.0825,222.375 Q166.7856,222.375 167.4263,222.5313 Q168.0825,222.6875 168.645,222.9844 L168.645,225.7031 Q168.02,225.125 167.4263,224.8594 Q166.8325,224.5781 166.2075,224.5781 Q164.8638,224.5781 164.1763,225.6563 Q163.4888,226.7188 163.4888,228.8125 Q163.4888,230.9063 164.1763,231.9844 Q164.8638,233.0469 166.2075,233.0469 Q166.8325,233.0469 167.4263,232.7813 Q168.02,232.5 168.645,231.9219 L168.645,234.6406 Z " fill="#000000"/><text fill="#000000" font-family="sans-serif" font-size="14" lengthAdjust="spacing" textLength="47.1338" x="186.1763" y="233.8467">Author</text><line style="stroke:#181818;stroke-width:0.5;" x1="10" x2="376.9863" y1="245" y2="245"/><ellipse cx="20" cy="258.6484" fill="none" rx="3" ry="3" style="stroke:#038048;stroke-width:1;"/><text fill="#000000" font-family="sans-serif" font-size="14" lengthAdjust="spacing" textLength="90.6582" x="29" y="261.9951">Name: string</text><ellipse cx="20" cy="274.9453" fill="none" rx="3" ry="3" style="stroke:#038048;stroke-width:1;"/><text fill="#000000" font-family="sans-serif" font-size="14" lengthAdjust="spacing" textLength="153.918" x="29" y="278.292">Cheeps: List&lt;Cheep&gt;</text><ellipse cx="20" cy="291.2422" fill="none" rx="3" ry="3" style="stroke:#038048;stroke-width:1;"/><text fill="#000000" font-family="sans-serif" font-size="14" lengthAdjust="spacing" textLength="229.0928" x="29" y="294.5889">Followers: List&lt;AuthorFollower&gt;</text><ellipse cx="20" cy="307.5391" fill="none" rx="3" ry="3" style="stroke:#038048;stroke-width:1;"/><text fill="#000000" font-family="sans-serif" font-size="14" lengthAdjust="spacing" textLength="229.0791" x="29" y="310.8857">Following: List&lt;AuthorFollower&gt;</text><ellipse cx="20" cy="323.8359" fill="none" rx="3" ry="3" style="stroke:#038048;stroke-width:1;"/><text fill="#000000" font-family="sans-serif" font-size="14" lengthAdjust="spacing" textLength="342.9863" x="29" y="327.1826">AuthorAchievements: List&lt;AuthorAchievement&gt;</text><line style="stroke:#181818;stroke-width:0.5;" x1="10" x2="376.9863" y1="334.4844" y2="334.4844"/></g><!--class Cheep--><g id="elem_Cheep"><rect codeLine="16" fill="#F1F1F1" height="129.4844" id="Cheep" rx="2.5" ry="2.5" style="stroke:#181818;stroke-width:0.5;" width="183.4932" x="7" y="419"/><ellipse cx="72.1157" cy="435" fill="#ADD1B2" rx="11" ry="11" style="stroke:#181818;stroke-width:1;"/><path d="M75.0845,440.6406 Q74.5063,440.9375 73.8657,441.0781 Q73.2251,441.2344 72.522,441.2344 Q70.022,441.2344 68.6938,439.5938 Q67.3813,437.9375 67.3813,434.8125 Q67.3813,431.6875 68.6938,430.0313 Q70.022,428.375 72.522,428.375 Q73.2251,428.375 73.8657,428.5313 Q74.522,428.6875 75.0845,428.9844 L75.0845,431.7031 Q74.4595,431.125 73.8657,430.8594 Q73.272,430.5781 72.647,430.5781 Q71.3032,430.5781 70.6157,431.6563 Q69.9282,432.7188 69.9282,434.8125 Q69.9282,436.9063 70.6157,437.9844 Q71.3032,439.0469 72.647,439.0469 Q73.272,439.0469 73.8657,438.7813 Q74.4595,438.5 75.0845,437.9219 L75.0845,440.6406 Z " fill="#000000"/><text fill="#000000" font-family="sans-serif" font-size="14" lengthAdjust="spacing" textLength="44.7617" x="92.6157" y="439.8467">Cheep</text><line style="stroke:#181818;stroke-width:0.5;" x1="8" x2="189.4932" y1="451" y2="451"/><ellipse cx="18" cy="464.6484" fill="none" rx="3" ry="3" style="stroke:#038048;stroke-width:1;"/><text fill="#000000" font-family="sans-serif" font-size="14" lengthAdjust="spacing" textLength="85.1963" x="27" y="467.9951">CheepId: int</text><ellipse cx="18" cy="480.9453" fill="none" rx="3" ry="3" style="stroke:#038048;stroke-width:1;"/><text fill="#000000" font-family="sans-serif" font-size="14" lengthAdjust="spacing" textLength="80.2949" x="27" y="484.292">Text: string</text><ellipse cx="18" cy="497.2422" fill="none" rx="3" ry="3" style="stroke:#038048;stroke-width:1;"/><text fill="#000000" font-family="sans-serif" font-size="14" lengthAdjust="spacing" textLength="157.4932" x="27" y="500.5889">TimeStamp: DateTime</text><ellipse cx="18" cy="513.5391" fill="none" rx="3" ry="3" style="stroke:#038048;stroke-width:1;"/><text fill="#000000" font-family="sans-serif" font-size="14" lengthAdjust="spacing" textLength="109.5049" x="27" y="516.8857">AuthorId: string</text><ellipse cx="18" cy="529.8359" fill="none" rx="3" ry="3" style="stroke:#038048;stroke-width:1;"/><text fill="#000000" font-family="sans-serif" font-size="14" lengthAdjust="spacing" textLength="103.4346" x="27" y="533.1826">Author: Author</text><line style="stroke:#181818;stroke-width:0.5;" x1="8" x2="189.4932" y1="540.4844" y2="540.4844"/></g><!--class AuthorFollower--><g id="elem_AuthorFollower"><rect codeLine="24" fill="#F1F1F1" height="113.1875" id="AuthorFollower" rx="2.5" ry="2.5" style="stroke:#181818;stroke-width:0.5;" width="154.4336" x="225.5" y="427"/><ellipse cx="247.9329" cy="443" fill="#ADD1B2" rx="11" ry="11" style="stroke:#181818;stroke-width:1;"/><path d="M250.9017,448.6406 Q250.3235,448.9375 249.6829,449.0781 Q249.0423,449.2344 248.3392,449.2344 Q245.8392,449.2344 244.511,447.5938 Q243.1985,445.9375 243.1985,442.8125 Q243.1985,439.6875 244.511,438.0313 Q245.8392,436.375 248.3392,436.375 Q249.0423,436.375 249.6829,436.5313 Q250.3392,436.6875 250.9017,436.9844 L250.9017,439.7031 Q250.2767,439.125 249.6829,438.8594 Q249.0892,438.5781 248.4642,438.5781 Q247.1204,438.5781 246.4329,439.6563 Q245.7454,440.7188 245.7454,442.8125 Q245.7454,444.9063 246.4329,445.9844 Q247.1204,447.0469 248.4642,447.0469 Q249.0892,447.0469 249.6829,446.7813 Q250.2767,446.5 250.9017,445.9219 L250.9017,448.6406 Z " fill="#000000"/><text fill="#000000" font-family="sans-serif" font-size="14" lengthAdjust="spacing" textLength="105.916" x="263.5847" y="447.8467">AuthorFollower</text><line style="stroke:#181818;stroke-width:0.5;" x1="226.5" x2="378.9336" y1="459" y2="459"/><ellipse cx="236.5" cy="472.6484" fill="none" rx="3" ry="3" style="stroke:#038048;stroke-width:1;"/><text fill="#000000" font-family="sans-serif" font-size="14" lengthAdjust="spacing" textLength="121.1533" x="245.5" y="475.9951">FollowerId: string</text><ellipse cx="236.5" cy="488.9453" fill="none" rx="3" ry="3" style="stroke:#038048;stroke-width:1;"/><text fill="#000000" font-family="sans-serif" font-size="14" lengthAdjust="spacing" textLength="115.083" x="245.5" y="492.292">Follower: Author</text><ellipse cx="236.5" cy="505.2422" fill="none" rx="3" ry="3" style="stroke:#038048;stroke-width:1;"/><text fill="#000000" font-family="sans-serif" font-size="14" lengthAdjust="spacing" textLength="128.4336" x="245.5" y="508.5889">FollowingId: string</text><ellipse cx="236.5" cy="521.5391" fill="none" rx="3" ry="3" style="stroke:#038048;stroke-width:1;"/><text fill="#000000" font-family="sans-serif" font-size="14" lengthAdjust="spacing" textLength="122.3633" x="245.5" y="524.8857">Following: Author</text><line style="stroke:#181818;stroke-width:0.5;" x1="226.5" x2="378.9336" y1="532.1875" y2="532.1875"/></g><!--class Achievement--><g id="elem_Achievement"><rect codeLine="31" fill="#F1F1F1" height="129.4844" id="Achievement" rx="2.5" ry="2.5" style="stroke:#181818;stroke-width:0.5;" width="368.9863" x="409" y="7"/><ellipse cx="543.1621" cy="23" fill="#ADD1B2" rx="11" ry="11" style="stroke:#181818;stroke-width:1;"/><path d="M546.1309,28.6406 Q545.5527,28.9375 544.9121,29.0781 Q544.2715,29.2344 543.5684,29.2344 Q541.0684,29.2344 539.7402,27.5938 Q538.4277,25.9375 538.4277,22.8125 Q538.4277,19.6875 539.7402,18.0313 Q541.0684,16.375 543.5684,16.375 Q544.2715,16.375 544.9121,16.5313 Q545.5684,16.6875 546.1309,16.9844 L546.1309,19.7031 Q545.5059,19.125 544.9121,18.8594 Q544.3184,18.5781 543.6934,18.5781 Q542.3496,18.5781 541.6621,19.6563 Q540.9746,20.7188 540.9746,22.8125 Q540.9746,24.9063 541.6621,25.9844 Q542.3496,27.0469 543.6934,27.0469 Q544.3184,27.0469 544.9121,26.7813 Q545.5059,26.5 546.1309,25.9219 L546.1309,28.6406 Z " fill="#000000"/><text fill="#000000" font-family="sans-serif" font-size="14" lengthAdjust="spacing" textLength="92.1621" x="563.6621" y="27.8467">Achievement</text><line style="stroke:#181818;stroke-width:0.5;" x1="410" x2="776.9863" y1="39" y2="39"/><ellipse cx="420" cy="52.6484" fill="none" rx="3" ry="3" style="stroke:#038048;stroke-width:1;"/><text fill="#000000" font-family="sans-serif" font-size="14" lengthAdjust="spacing" textLength="132.5967" x="429" y="55.9951">AchievementId: int</text><ellipse cx="420" cy="68.9453" fill="none" rx="3" ry="3" style="stroke:#038048;stroke-width:1;"/><text fill="#000000" font-family="sans-serif" font-size="14" lengthAdjust="spacing" textLength="79.7891" x="429" y="72.292">Title: string</text><ellipse cx="420" cy="85.2422" fill="none" rx="3" ry="3" style="stroke:#038048;stroke-width:1;"/><text fill="#000000" font-family="sans-serif" font-size="14" lengthAdjust="spacing" textLength="129.0898" x="429" y="88.5889">Description: string</text><ellipse cx="420" cy="101.5391" fill="none" rx="3" ry="3" style="stroke:#038048;stroke-width:1;"/><text fill="#000000" font-family="sans-serif" font-size="14" lengthAdjust="spacing" textLength="124.585" x="429" y="104.8857">ImagePath: string</text><ellipse cx="420" cy="117.8359" fill="none" rx="3" ry="3" style="stroke:#038048;stroke-width:1;"/><text fill="#000000" font-family="sans-serif" font-size="14" lengthAdjust="spacing" textLength="342.9863" x="429" y="121.1826">AuthorAchievements: List&lt;AuthorAchievement&gt;</text><line style="stroke:#181818;stroke-width:0.5;" x1="410" x2="776.9863" y1="128.4844" y2="128.4844"/></g><!--class AuthorAchievement--><g id="elem_AuthorAchievement"><rect codeLine="39" fill="#F1F1F1" height="129.4844" id="AuthorAchievement" rx="2.5" ry="2.5" style="stroke:#181818;stroke-width:0.5;" width="219.4912" x="484" y="213"/><ellipse cx="520.6879" cy="229" fill="#ADD1B2" rx="11" ry="11" style="stroke:#181818;stroke-width:1;"/><path d="M523.6566,234.6406 Q523.0785,234.9375 522.4379,235.0781 Q521.7973,235.2344 521.0941,235.2344 Q518.5941,235.2344 517.266,233.5938 Q515.9535,231.9375 515.9535,228.8125 Q515.9535,225.6875 517.266,224.0313 Q518.5941,222.375 521.0941,222.375 Q521.7973,222.375 522.4379,222.5313 Q523.0941,222.6875 523.6566,222.9844 L523.6566,225.7031 Q523.0316,225.125 522.4379,224.8594 Q521.8441,224.5781 521.2191,224.5781 Q519.8754,224.5781 519.1879,225.6563 Q518.5004,226.7188 518.5004,228.8125 Q518.5004,230.9063 519.1879,231.9844 Q519.8754,233.0469 521.2191,233.0469 Q521.8441,233.0469 522.4379,232.7813 Q523.0316,232.5 523.6566,231.9219 L523.6566,234.6406 Z " fill="#000000"/><text fill="#000000" font-family="sans-serif" font-size="14" lengthAdjust="spacing" textLength="139.2959" x="539.5074" y="233.8467">AuthorAchievement</text><line style="stroke:#181818;stroke-width:0.5;" x1="485" x2="702.4912" y1="245" y2="245"/><ellipse cx="495" cy="258.6484" fill="none" rx="3" ry="3" style="stroke:#038048;stroke-width:1;"/><text fill="#000000" font-family="sans-serif" font-size="14" lengthAdjust="spacing" textLength="109.5049" x="504" y="261.9951">AuthorId: string</text><ellipse cx="495" cy="274.9453" fill="none" rx="3" ry="3" style="stroke:#038048;stroke-width:1;"/><text fill="#000000" font-family="sans-serif" font-size="14" lengthAdjust="spacing" textLength="103.4346" x="504" y="278.292">Author: Author</text><ellipse cx="495" cy="291.2422" fill="none" rx="3" ry="3" style="stroke:#038048;stroke-width:1;"/><text fill="#000000" font-family="sans-serif" font-size="14" lengthAdjust="spacing" textLength="132.5967" x="504" y="294.5889">AchievementId: int</text><ellipse cx="495" cy="307.5391" fill="none" rx="3" ry="3" style="stroke:#038048;stroke-width:1;"/><text fill="#000000" font-family="sans-serif" font-size="14" lengthAdjust="spacing" textLength="193.4912" x="504" y="310.8857">Achievement: Achievement</text><ellipse cx="495" cy="323.8359" fill="none" rx="3" ry="3" style="stroke:#038048;stroke-width:1;"/><text fill="#000000" font-family="sans-serif" font-size="14" lengthAdjust="spacing" textLength="156.8232" x="504" y="327.1826">AchievedAt: DateTime</text><line style="stroke:#181818;stroke-width:0.5;" x1="485" x2="702.4912" y1="334.4844" y2="334.4844"/></g><!--reverse link IdentityUser to Author--><g id="link_IdentityUser_Author"><path d="M193.5,146.24 C193.5,172.43 193.5,185.78 193.5,212.9 " fill="none" id="IdentityUser-backto-Author" style="stroke:#181818;stroke-width:1;"/><polygon fill="none" points="193.5,128.24,187.5,146.24,199.5,146.24,193.5,128.24" style="stroke:#181818;stroke-width:1;"/></g><!--link Author to Cheep--><g id="link_Author_Cheep"><path codeLine="49" d="M119.53,342.06 C112.31,351.37 106,361.42 101.5,372 C95.34,386.48 92.82,403.02 92.24,418.82 " fill="none" id="Author-Cheep" style="stroke:#181818;stroke-width:1;"/><polygon fill="#000000" points="104.8251,385.2775,110.6242,377.7395,105.0859,375.7705,104.8251,385.2775" style="stroke:#000000;stroke-width:1;"/><text fill="#000000" font-family="sans-serif" font-size="13" lengthAdjust="spacing" textLength="34.436" x="115.5" y="385.0669">Posts</text><text fill="#000000" font-family="sans-serif" font-size="13" lengthAdjust="spacing" textLength="24.8066" x="85.6371" y="362.4385">1..1</text><text fill="#000000" font-family="sans-serif" font-size="13" lengthAdjust="spacing" textLength="26.2603" x="64.1207" y="407.973">0..N</text></g><!--link Author to AuthorFollower--><g id="link_Author_AuthorFollower"><path codeLine="51" d="M181.99,342.21 C181.72,358.09 183.79,374.66 190.5,389 C198.5,406.09 211.32,421.16 225.49,433.92 " fill="none" id="Author-AuthorFollower" style="stroke:#181818;stroke-width:1;"/><polygon fill="#000000" points="193.3572,376.0488,194.5782,385.4807,199.8889,382.9617,193.3572,376.0488" style="stroke:#000000;stroke-width:1;"/><text fill="#000000" font-family="sans-serif" font-size="13" lengthAdjust="spacing" textLength="54.5835" x="204.5" y="385.0669">Follower</text><text fill="#000000" font-family="sans-serif" font-size="13" lengthAdjust="spacing" textLength="24.8066" x="155.3191" y="362.6059">1..1</text><text fill="#000000" font-family="sans-serif" font-size="13" lengthAdjust="spacing" textLength="26.2603" x="191.1842" y="425.7223">0..N</text></g><!--link Author to AuthorFollower--><g id="link_Author_AuthorFollower"><path codeLine="52" d="M245.11,342.2 C251.78,351.88 258.15,361.99 263.5,372 C272.66,389.13 280.41,408.86 286.53,426.86 " fill="none" id="Author-AuthorFollower-1" style="stroke:#181818;stroke-width:1;"/><polygon fill="#000000" points="274.3026,376.0751,275.6378,385.4915,280.9176,382.9083,274.3026,376.0751" style="stroke:#000000;stroke-width:1;"/><text fill="#000000" font-family="sans-serif" font-size="13" lengthAdjust="spacing" textLength="61.3438" x="285.5" y="385.0669">Following</text><text fill="#000000" font-family="sans-serif" font-size="13" lengthAdjust="spacing" textLength="24.8066" x="225.7373" y="362.5947">1..1</text><text fill="#000000" font-family="sans-serif" font-size="13" lengthAdjust="spacing" textLength="26.2603" x="256.9887" y="416.1065">0..N</text></g><!--link Achievement to AuthorAchievement--><g id="link_Achievement_AuthorAchievement"><path codeLine="54" d="M593.5,136.21 C593.5,160.64 593.5,188.5 593.5,212.92 " fill="none" id="Achievement-AuthorAchievement" style="stroke:#181818;stroke-width:1;"/><polygon fill="#000000" points="598.5,169.5664,595.5611,178.6115,601.4389,178.6115,598.5,169.5664" style="stroke:#000000;stroke-width:1;"/><text fill="#000000" font-family="sans-serif" font-size="13" lengthAdjust="spacing" textLength="65.6602" x="607.5" y="179.0669">Relates to</text><text fill="#000000" font-family="sans-serif" font-size="13" lengthAdjust="spacing" textLength="24.8066" x="568.1599" y="156.6059">1..1</text><text fill="#000000" font-family="sans-serif" font-size="13" lengthAdjust="spacing" textLength="26.2603" x="566.0655" y="202.0839">0..N</text></g><!--link Author to AuthorAchievement--><g id="link_Author_AuthorAchievement"><path codeLine="55" d="M378.28,277.5 C414.41,277.5 451.2,277.5 483.91,277.5 " fill="none" id="Author-AuthorAchievement" style="stroke:#181818;stroke-width:1;"/><polygon fill="#000000" points="405.5,266.0664,396.4549,263.1275,396.4549,269.0053,405.5,266.0664" style="stroke:#000000;stroke-width:1;"/><text fill="#000000" font-family="sans-serif" font-size="13" lengthAdjust="spacing" textLength="56.2593" x="409.5" y="270.5669">Acquires</text><text fill="#000000" font-family="sans-serif" font-size="13" lengthAdjust="spacing" textLength="24.8066" x="385.9827" y="289.853">1..1</text><text fill="#000000" font-family="sans-serif" font-size="13" lengthAdjust="spacing" textLength="26.2603" x="449.6657" y="290.059">0..N</text></g><!--SRC=[bLFRIiD047tVhnZoAWtsTIc1O1KBKeBM3rYIeLb8iZ4xjOhuxsxkcqqlDY_Bd3FNCvCu4rh39i6297s_QwpWXu7vxWp8GLCbYtq7rEnMvEZ0ZxcGcOD59kjHLScpqEb0_J8MD-N20wLgB7GYvqEAM6eEBrBJgZ62ZdbIMQQEMFLacwj7fructqMl5WtZLE8dvaQ2QLAB2CRccsw6tXkhLaeMr44x_29dd9tCyOr4Nd9O2yBQdBGmaxg5UVUwolLp35tqm2nFJmoP77dE13J2pMgFSWo5BSmHGLBcBdMDEgvaIL8L3hF9nHuZGUb96MvSq8mRk_sNs5ScimXk6rCw2SdQjNlvvaAmIAR_7MCTwIrzV-d1OW7UlUzllUxYE4HAauRWlADp7NnOFwnkZJ7gc21cgtWcr7RXy8gP6Le3gNdDIt5X_76GbGaC_W00]--></g></svg>