<svg xmlns="http://www.w3.org/2000/svg" xmlns:xlink="http://www.w3.org/1999/xlink" contentStyleType="text/css" data-diagram-type="ACTIVITY" height="619px" preserveAspectRatio="none" style="width:351px;height:619px;background:#FFFFFF;" version="1.1" viewBox="0 0 351 619" width="351px" zoomAndPan="magnify"><title>Build and Test on pushes/pull-requests</title><defs/><g><text fill="#000000" font-family="sans-serif" font-size="14" font-weight="bold" lengthAdjust="spacing" textLength="308.7109" x="20" y="32.9951">Build and Test on pushes/pull-requests</text><ellipse cx="175.8555" cy="57.2969" fill="#222222" rx="10" ry="10" style="stroke:#222222;stroke-width:1;"/><rect fill="#F1F1F1" height="33.9688" rx="12.5" ry="12.5" style="stroke:#181818;stroke-width:0.5;" width="111.1016" x="120.3047" y="87.2969"/><text fill="#000000" font-family="sans-serif" font-size="12" lengthAdjust="spacing" textLength="91.1016" x="130.3047" y="108.4355">Checkout Code</text><rect fill="#F1F1F1" height="33.9688" rx="12.5" ry="12.5" style="stroke:#181818;stroke-width:0.5;" width="225.2715" x="63.2197" y="141.2656"/><text fill="#000000" font-family="sans-serif" font-size="12" lengthAdjust="spacing" textLength="205.2715" x="73.2197" y="162.4043">Setup .NET (Install .NET SDK v8.x)</text><rect fill="#F1F1F1" height="33.9688" rx="12.5" ry="12.5" style="stroke:#181818;stroke-width:0.5;" width="287.041" x="32.335" y="195.2344"/><text fill="#000000" font-family="sans-serif" font-size="12" lengthAdjust="spacing" textLength="164.8242" x="42.335" y="216.373">Restore Dependencies with</text><text fill="#000000" font-family="sans-serif" font-size="12" font-weight="bold" lengthAdjust="spacing" textLength="98.4023" x="210.9736" y="216.373">dotnet restore</text><rect fill="#F1F1F1" height="33.9688" rx="12.5" ry="12.5" style="stroke:#181818;stroke-width:0.5;" width="237.1895" x="57.2607" y="249.2031"/><text fill="#000000" font-family="sans-serif" font-size="12" lengthAdjust="spacing" textLength="130.2598" x="67.2607" y="270.3418">Build Application with</text><text fill="#000000" font-family="sans-serif" font-size="12" font-weight="bold" lengthAdjust="spacing" textLength="83.1152" x="201.335" y="270.3418">dotnet build</text><rect fill="#F1F1F1" height="33.9688" rx="12.5" ry="12.5" style="stroke:#181818;stroke-width:0.5;" width="145.3906" x="103.1602" y="303.1719"/><text fill="#000000" font-family="sans-serif" font-size="12" lengthAdjust="spacing" textLength="125.3906" x="113.1602" y="324.3105">Install Playwright CLI</text><rect fill="#F1F1F1" height="33.9688" rx="12.5" ry="12.5" style="stroke:#181818;stroke-width:0.5;" width="181.3145" x="85.1982" y="357.1406"/><text fill="#000000" font-family="sans-serif" font-size="12" lengthAdjust="spacing" textLength="161.3145" x="95.1982" y="378.2793">Install Playwright browsers</text><rect fill="#F1F1F1" height="47.9375" rx="12.5" ry="12.5" style="stroke:#181818;stroke-width:0.5;" width="285.1543" x="33.2783" y="411.1094"/><text fill="#000000" font-family="sans-serif" font-size="12" lengthAdjust="spacing" textLength="88.5586" x="43.2783" y="432.248">Run Tests with</text><text fill="#000000" font-family="sans-serif" font-size="12" font-weight="bold" lengthAdjust="spacing" textLength="75.9199" x="135.6514" y="432.248">dotnet test</text><text fill="#000000" font-family="sans-serif" font-size="12" lengthAdjust="spacing" textLength="265.1543" x="43.2783" y="446.2168">(configuration: ${{ matrix.configuration }})</text><rect fill="#F1F1F1" height="33.9688" rx="12.5" ry="12.5" style="stroke:#181818;stroke-width:0.5;" width="300.7461" x="25.4824" y="479.0469"/><text fill="#000000" font-family="sans-serif" font-size="12" lengthAdjust="spacing" textLength="280.7461" x="35.4824" y="500.1855">Build Application in Release and Debug modes</text><rect fill="#F1F1F1" height="33.9688" rx="12.5" ry="12.5" style="stroke:#181818;stroke-width:0.5;" width="254.5918" x="48.5596" y="533.0156"/><text fill="#000000" font-family="sans-serif" font-size="12" lengthAdjust="spacing" textLength="234.5918" x="58.5596" y="554.1543">Publish Application to Output Directory</text><ellipse cx="175.8555" cy="597.9844" fill="none" rx="11" ry="11" style="stroke:#222222;stroke-width:1;"/><ellipse cx="175.8555" cy="597.9844" fill="#222222" rx="6" ry="6" style="stroke:#222222;stroke-width:1;"/><line style="stroke:#181818;stroke-width:1;" x1="175.8555" x2="175.8555" y1="67.2969" y2="87.2969"/><polygon fill="#181818" points="171.8555,77.2969,175.8555,87.2969,179.8555,77.2969,175.8555,81.2969" style="stroke:#181818;stroke-width:1;"/><line style="stroke:#181818;stroke-width:1;" x1="175.8555" x2="175.8555" y1="121.2656" y2="141.2656"/><polygon fill="#181818" points="171.8555,131.2656,175.8555,141.2656,179.8555,131.2656,175.8555,135.2656" style="stroke:#181818;stroke-width:1;"/><line style="stroke:#181818;stroke-width:1;" x1="175.8555" x2="175.8555" y1="175.2344" y2="195.2344"/><polygon fill="#181818" points="171.8555,185.2344,175.8555,195.2344,179.8555,185.2344,175.8555,189.2344" style="stroke:#181818;stroke-width:1;"/><line style="stroke:#181818;stroke-width:1;" x1="175.8555" x2="175.8555" y1="229.2031" y2="249.2031"/><polygon fill="#181818" points="171.8555,239.2031,175.8555,249.2031,179.8555,239.2031,175.8555,243.2031" style="stroke:#181818;stroke-width:1;"/><line style="stroke:#181818;stroke-width:1;" x1="175.8555" x2="175.8555" y1="283.1719" y2="303.1719"/><polygon fill="#181818" points="171.8555,293.1719,175.8555,303.1719,179.8555,293.1719,175.8555,297.1719" style="stroke:#181818;stroke-width:1;"/><line style="stroke:#181818;stroke-width:1;" x1="175.8555" x2="175.8555" y1="337.1406" y2="357.1406"/><polygon fill="#181818" points="171.8555,347.1406,175.8555,357.1406,179.8555,347.1406,175.8555,351.1406" style="stroke:#181818;stroke-width:1;"/><line style="stroke:#181818;stroke-width:1;" x1="175.8555" x2="175.8555" y1="391.1094" y2="411.1094"/><polygon fill="#181818" points="171.8555,401.1094,175.8555,411.1094,179.8555,401.1094,175.8555,405.1094" style="stroke:#181818;stroke-width:1;"/><line style="stroke:#181818;stroke-width:1;" x1="175.8555" x2="175.8555" y1="459.0469" y2="479.0469"/><polygon fill="#181818" points="171.8555,469.0469,175.8555,479.0469,179.8555,469.0469,175.8555,473.0469" style="stroke:#181818;stroke-width:1;"/><line style="stroke:#181818;stroke-width:1;" x1="175.8555" x2="175.8555" y1="513.0156" y2="533.0156"/><polygon fill="#181818" points="171.8555,523.0156,175.8555,533.0156,179.8555,523.0156,175.8555,527.0156" style="stroke:#181818;stroke-width:1;"/><line style="stroke:#181818;stroke-width:1;" x1="175.8555" x2="175.8555" y1="566.9844" y2="586.9844"/><polygon fill="#181818" points="171.8555,576.9844,175.8555,586.9844,179.8555,576.9844,175.8555,580.9844" style="stroke:#181818;stroke-width:1;"/><!--SRC=[RP31JiCm44Jl_eezS6Wj4QueEK73eG91bVO7d6H9LhYsiTUaLTL_nqd48S3HEsztniF46k4nacv1cHOE61Yi0HT3Z-7EHQrlFNx6D0v215QUXSWtFJOVDZ9iR8k5oFV8qK7s-dI0rTOaIklvjI-VuUi-EwqJLAKRrYEKwD2qQ1h200Dn3rAsbWqo-1cHCk5pfWVdD3MAAMLQilMeZwJ8VontMfq7JrsVWhriYt-5sjiXe0_ZNXNDzE7VCJZDf1IhnfftwgAVx7EukLpWgDZJALieSBskntD_4vE12ZMgW5Ev9TQnWsFgBDddkrXh2lrYWIsyHNQfsP8yDgcCSp7MRjqt]--></g></svg>