<svg xmlns="http://www.w3.org/2000/svg" xmlns:xlink="http://www.w3.org/1999/xlink" contentStyleType="text/css" data-diagram-type="ACTIVITY" height="1060px" preserveAspectRatio="none" style="width:302px;height:1060px;background:#FFFFFF;" version="1.1" viewBox="0 0 302 1060" width="302px" zoomAndPan="magnify"><title>Build and Deploy Azure Web App</title><defs/><g><text fill="#000000" font-family="sans-serif" font-size="14" font-weight="bold" lengthAdjust="spacing" textLength="259.9297" x="20" y="32.9951">Build and Deploy Azure Web App</text><ellipse cx="151.4648" cy="57.2969" fill="#222222" rx="10" ry="10" style="stroke:#222222;stroke-width:1;"/><rect fill="#F1F1F1" height="33.9688" rx="12.5" ry="12.5" style="stroke:#181818;stroke-width:0.5;" width="242.2168" x="30.3564" y="87.2969"/><text fill="#000000" font-family="sans-serif" font-size="12" lengthAdjust="spacing" textLength="222.2168" x="40.3564" y="108.4355">Push to 'main' branch or PR to 'main'</text><rect fill="none" height="460.0469" style="stroke:#000000;stroke-width:1.5;" width="259.9199" x="21.5049" y="131.2656"/><path d="M92.6797,131.2656 L92.6797,140.5625 L82.6797,150.5625 L21.5049,150.5625 " fill="none" style="stroke:#000000;stroke-width:1.5;"/><text fill="#000000" font-family="sans-serif" font-size="14" lengthAdjust="spacing" textLength="61.1748" x="24.5049" y="145.2607">Build Job</text><rect fill="#F1F1F1" height="33.9688" rx="12.5" ry="12.5" style="stroke:#181818;stroke-width:0.5;" width="111.1016" x="95.9141" y="167.5625"/><text fill="#000000" font-family="sans-serif" font-size="12" lengthAdjust="spacing" textLength="91.1016" x="105.9141" y="188.7012">Checkout Code</text><rect fill="#F1F1F1" height="33.9688" rx="12.5" ry="12.5" style="stroke:#181818;stroke-width:0.5;" width="160.9414" x="70.9941" y="221.5313"/><text fill="#000000" font-family="sans-serif" font-size="12" lengthAdjust="spacing" textLength="140.9414" x="80.9941" y="242.6699">Set up .NET Core (v8.x)</text><rect fill="#F1F1F1" height="33.9688" rx="12.5" ry="12.5" style="stroke:#181818;stroke-width:0.5;" width="239.9199" x="31.5049" y="275.5"/><text fill="#000000" font-family="sans-serif" font-size="12" lengthAdjust="spacing" textLength="219.9199" x="41.5049" y="296.6387">Build Solution (dotnet build Release)</text><rect fill="#F1F1F1" height="33.9688" rx="12.5" ry="12.5" style="stroke:#181818;stroke-width:0.5;" width="145.3906" x="78.7695" y="329.4688"/><text fill="#000000" font-family="sans-serif" font-size="12" lengthAdjust="spacing" textLength="125.3906" x="88.7695" y="350.6074">Install Playwright CLI</text><rect fill="#F1F1F1" height="33.9688" rx="12.5" ry="12.5" style="stroke:#181818;stroke-width:0.5;" width="181.9297" x="60.5" y="383.4375"/><text fill="#000000" font-family="sans-serif" font-size="12" lengthAdjust="spacing" textLength="161.9297" x="70.5" y="404.5762">Install Playwright Browsers</text><rect fill="#F1F1F1" height="33.9688" rx="12.5" ry="12.5" style="stroke:#181818;stroke-width:0.5;" width="158.6797" x="72.125" y="437.4063"/><text fill="#000000" font-family="sans-serif" font-size="12" lengthAdjust="spacing" textLength="138.6797" x="82.125" y="458.5449">Run Tests (dotnet test)</text><rect fill="#F1F1F1" height="33.9688" rx="12.5" ry="12.5" style="stroke:#181818;stroke-width:0.5;" width="189.957" x="56.4863" y="491.375"/><text fill="#000000" font-family="sans-serif" font-size="12" lengthAdjust="spacing" textLength="169.957" x="66.4863" y="512.5137">Publish App (dotnet publish)</text><rect fill="#F1F1F1" height="33.9688" rx="12.5" ry="12.5" style="stroke:#181818;stroke-width:0.5;" width="143.8613" x="79.5342" y="545.3438"/><text fill="#000000" font-family="sans-serif" font-size="12" lengthAdjust="spacing" textLength="123.8613" x="89.5342" y="566.4824">Upload Build Artifact</text><rect fill="#F1F1F1" height="33.9688" rx="12.5" ry="12.5" style="stroke:#181818;stroke-width:0.5;" width="131.293" x="85.8184" y="611.3125"/><text fill="#000000" font-family="sans-serif" font-size="12" lengthAdjust="spacing" textLength="111.293" x="95.8184" y="632.4512">Trigger Deploy Job</text><rect fill="none" height="298.1406" style="stroke:#000000;stroke-width:1.5;" width="199.9902" x="51.4697" y="655.2813"/><path d="M136.5215,655.2813 L136.5215,664.5781 L126.5215,674.5781 L51.4697,674.5781 " fill="none" style="stroke:#000000;stroke-width:1.5;"/><text fill="#000000" font-family="sans-serif" font-size="14" lengthAdjust="spacing" textLength="75.0518" x="54.4697" y="669.2764">Deploy Job</text><rect fill="#F1F1F1" height="33.9688" rx="12.5" ry="12.5" style="stroke:#181818;stroke-width:0.5;" width="161.4629" x="70.7334" y="691.5781"/><text fill="#000000" font-family="sans-serif" font-size="12" lengthAdjust="spacing" textLength="141.4629" x="80.7334" y="712.7168">Download Build Artifact</text><rect fill="#F1F1F1" height="33.9688" rx="12.5" ry="12.5" style="stroke:#181818;stroke-width:0.5;" width="106.6895" x="98.1201" y="745.5469"/><text fill="#000000" font-family="sans-serif" font-size="12" lengthAdjust="spacing" textLength="86.6895" x="108.1201" y="766.6855">Login to Azure</text><rect fill="#F1F1F1" height="33.9688" rx="12.5" ry="12.5" style="stroke:#181818;stroke-width:0.5;" width="179.9902" x="61.4697" y="799.5156"/><text fill="#000000" font-family="sans-serif" font-size="12" lengthAdjust="spacing" textLength="159.9902" x="71.4697" y="820.6543">Set Environment Variables</text><rect fill="#F1F1F1" height="33.9688" rx="12.5" ry="12.5" style="stroke:#181818;stroke-width:0.5;" width="174.0605" x="64.4346" y="853.4844"/><text fill="#000000" font-family="sans-serif" font-size="12" lengthAdjust="spacing" textLength="154.0605" x="74.4346" y="874.623">Deploy to Azure Web App</text><rect fill="#F1F1F1" height="33.9688" rx="12.5" ry="12.5" style="stroke:#181818;stroke-width:0.5;" width="147.2422" x="77.8438" y="907.4531"/><text fill="#000000" font-family="sans-serif" font-size="12" lengthAdjust="spacing" textLength="127.2422" x="87.8438" y="928.5918">Output Web App URL</text><rect fill="#F1F1F1" height="33.9688" rx="12.5" ry="12.5" style="stroke:#181818;stroke-width:0.5;" width="155.0469" x="73.9414" y="973.4219"/><text fill="#000000" font-family="sans-serif" font-size="12" lengthAdjust="spacing" textLength="135.0469" x="83.9414" y="994.5605">Deployment Complete</text><ellipse cx="151.4648" cy="1038.3906" fill="none" rx="11" ry="11" style="stroke:#222222;stroke-width:1;"/><ellipse cx="151.4648" cy="1038.3906" fill="#222222" rx="6" ry="6" style="stroke:#222222;stroke-width:1;"/><line style="stroke:#181818;stroke-width:1;" x1="151.4648" x2="151.4648" y1="67.2969" y2="87.2969"/><polygon fill="#181818" points="147.4648,77.2969,151.4648,87.2969,155.4648,77.2969,151.4648,81.2969" style="stroke:#181818;stroke-width:1;"/><line style="stroke:#181818;stroke-width:1;" x1="151.4648" x2="151.4648" y1="201.5313" y2="221.5313"/><polygon fill="#181818" points="147.4648,211.5313,151.4648,221.5313,155.4648,211.5313,151.4648,215.5313" style="stroke:#181818;stroke-width:1;"/><line style="stroke:#181818;stroke-width:1;" x1="151.4648" x2="151.4648" y1="255.5" y2="275.5"/><polygon fill="#181818" points="147.4648,265.5,151.4648,275.5,155.4648,265.5,151.4648,269.5" style="stroke:#181818;stroke-width:1;"/><line style="stroke:#181818;stroke-width:1;" x1="151.4648" x2="151.4648" y1="309.4688" y2="329.4688"/><polygon fill="#181818" points="147.4648,319.4688,151.4648,329.4688,155.4648,319.4688,151.4648,323.4688" style="stroke:#181818;stroke-width:1;"/><line style="stroke:#181818;stroke-width:1;" x1="151.4648" x2="151.4648" y1="363.4375" y2="383.4375"/><polygon fill="#181818" points="147.4648,373.4375,151.4648,383.4375,155.4648,373.4375,151.4648,377.4375" style="stroke:#181818;stroke-width:1;"/><line style="stroke:#181818;stroke-width:1;" x1="151.4648" x2="151.4648" y1="417.4063" y2="437.4063"/><polygon fill="#181818" points="147.4648,427.4063,151.4648,437.4063,155.4648,427.4063,151.4648,431.4063" style="stroke:#181818;stroke-width:1;"/><line style="stroke:#181818;stroke-width:1;" x1="151.4648" x2="151.4648" y1="471.375" y2="491.375"/><polygon fill="#181818" points="147.4648,481.375,151.4648,491.375,155.4648,481.375,151.4648,485.375" style="stroke:#181818;stroke-width:1;"/><line style="stroke:#181818;stroke-width:1;" x1="151.4648" x2="151.4648" y1="525.3438" y2="545.3438"/><polygon fill="#181818" points="147.4648,535.3438,151.4648,545.3438,155.4648,535.3438,151.4648,539.3438" style="stroke:#181818;stroke-width:1;"/><line style="stroke:#181818;stroke-width:1;" x1="151.4648" x2="151.4648" y1="121.2656" y2="167.5625"/><polygon fill="#181818" points="147.4648,157.5625,151.4648,167.5625,155.4648,157.5625,151.4648,161.5625" style="stroke:#181818;stroke-width:1;"/><line style="stroke:#181818;stroke-width:1;" x1="151.4648" x2="151.4648" y1="579.3125" y2="611.3125"/><polygon fill="#181818" points="147.4648,601.3125,151.4648,611.3125,155.4648,601.3125,151.4648,605.3125" style="stroke:#181818;stroke-width:1;"/><line style="stroke:#181818;stroke-width:1;" x1="151.4648" x2="151.4648" y1="725.5469" y2="745.5469"/><polygon fill="#181818" points="147.4648,735.5469,151.4648,745.5469,155.4648,735.5469,151.4648,739.5469" style="stroke:#181818;stroke-width:1;"/><line style="stroke:#181818;stroke-width:1;" x1="151.4648" x2="151.4648" y1="779.5156" y2="799.5156"/><polygon fill="#181818" points="147.4648,789.5156,151.4648,799.5156,155.4648,789.5156,151.4648,793.5156" style="stroke:#181818;stroke-width:1;"/><line style="stroke:#181818;stroke-width:1;" x1="151.4648" x2="151.4648" y1="833.4844" y2="853.4844"/><polygon fill="#181818" points="147.4648,843.4844,151.4648,853.4844,155.4648,843.4844,151.4648,847.4844" style="stroke:#181818;stroke-width:1;"/><line style="stroke:#181818;stroke-width:1;" x1="151.4648" x2="151.4648" y1="887.4531" y2="907.4531"/><polygon fill="#181818" points="147.4648,897.4531,151.4648,907.4531,155.4648,897.4531,151.4648,901.4531" style="stroke:#181818;stroke-width:1;"/><line style="stroke:#181818;stroke-width:1;" x1="151.4648" x2="151.4648" y1="645.2813" y2="691.5781"/><polygon fill="#181818" points="147.4648,681.5781,151.4648,691.5781,155.4648,681.5781,151.4648,685.5781" style="stroke:#181818;stroke-width:1;"/><line style="stroke:#181818;stroke-width:1;" x1="151.4648" x2="151.4648" y1="941.4219" y2="973.4219"/><polygon fill="#181818" points="147.4648,963.4219,151.4648,973.4219,155.4648,963.4219,151.4648,967.4219" style="stroke:#181818;stroke-width:1;"/><line style="stroke:#181818;stroke-width:1;" x1="151.4648" x2="151.4648" y1="1007.3906" y2="1027.3906"/><polygon fill="#181818" points="147.4648,1017.3906,151.4648,1027.3906,155.4648,1017.3906,151.4648,1021.3906" style="stroke:#181818;stroke-width:1;"/><!--SRC=[TP9FRy8m3CNl-HGM5zY5ymGd_XsOq5OLsCufzMYq44Uf0sFJllkyje5DOhdrsNul_Jbis29Cex4bQ5V27BsbCqm-Oa1umG8ctYjLimwir2YBTGLCq3zeu_fG1Ers5L20BB_AOwMyj1isvA3NMZzGqODF1N96imftRnGPPbJYkDNMo10z31yN6v4bUd2y7xxVTTNMOqqsDfw3ajZ9GD78ELhKDQRUfPFBMWkPrUTJCFjASbRB_ulJGASQGzrrvD711ckkBoaiNyayYuKrWa2WNEg-rLBBLlZfiYCw4GolUiTZzINqDfAunv0O2vE_gAxwXTMSJkwcNrDTqTwu7_3DkdwXNBYZ2UGEw1YUTJ2wi9Z-i4j9Ksd9NVKfifVLT29iyrLxztQgCPpHmLjaoPDtGVuR]--></g></svg>
