<svg xmlns="http://www.w3.org/2000/svg" xmlns:xlink="http://www.w3.org/1999/xlink" contentStyleType="text/css" height="473px" preserveAspectRatio="none" style="width:1139px;height:473px;background:#FFFFFF;" version="1.1" viewBox="0 0 1139 473" width="1139px" zoomAndPan="magnify"><defs/><g><line style="stroke:#181818;stroke-width:0.5;stroke-dasharray:5.0,5.0;" x1="23" x2="23" y1="81.2969" y2="392.625"/><line style="stroke:#181818;stroke-width:0.5;stroke-dasharray:5.0,5.0;" x1="214.7231" x2="214.7231" y1="81.2969" y2="392.625"/><line style="stroke:#181818;stroke-width:0.5;stroke-dasharray:5.0,5.0;" x1="431.8496" x2="431.8496" y1="81.2969" y2="392.625"/><line style="stroke:#181818;stroke-width:0.5;stroke-dasharray:5.0,5.0;" x1="687.686" x2="687.686" y1="81.2969" y2="392.625"/><line style="stroke:#181818;stroke-width:0.5;stroke-dasharray:5.0,5.0;" x1="942.8306" x2="942.8306" y1="81.2969" y2="392.625"/><line style="stroke:#181818;stroke-width:0.5;stroke-dasharray:5.0,5.0;" x1="1101.7271" x2="1101.7271" y1="81.2969" y2="392.625"/><text fill="#000000" font-family="sans-serif" font-size="14" lengthAdjust="spacing" textLength="31.9102" x="5" y="77.9951">User</text><ellipse cx="23.9551" cy="13.5" fill="#E2E2F0" rx="8" ry="8" style="stroke:#181818;stroke-width:0.5;"/><path d="M23.9551,21.5 L23.9551,48.5 M10.9551,29.5 L36.9551,29.5 M23.9551,48.5 L10.9551,63.5 M23.9551,48.5 L36.9551,63.5 " fill="none" style="stroke:#181818;stroke-width:0.5;"/><text fill="#000000" font-family="sans-serif" font-size="14" lengthAdjust="spacing" textLength="31.9102" x="5" y="404.6201">User</text><ellipse cx="23.9551" cy="416.4219" fill="#E2E2F0" rx="8" ry="8" style="stroke:#181818;stroke-width:0.5;"/><path d="M23.9551,424.4219 L23.9551,451.4219 M10.9551,432.4219 L36.9551,432.4219 M23.9551,451.4219 L10.9551,466.4219 M23.9551,451.4219 L36.9551,466.4219 " fill="none" style="stroke:#181818;stroke-width:0.5;"/><text fill="#000000" font-family="sans-serif" font-size="14" lengthAdjust="spacing" textLength="96.2363" x="163.7231" y="77.9951">ReverseProxy</text><path d="M194.3413,37 L194.3413,61 M194.3413,49 L211.3413,49 " fill="none" style="stroke:#181818;stroke-width:0.5;"/><ellipse cx="223.3413" cy="49" fill="#E2E2F0" rx="12" ry="12" style="stroke:#181818;stroke-width:0.5;"/><text fill="#000000" font-family="sans-serif" font-size="14" lengthAdjust="spacing" textLength="96.2363" x="163.7231" y="404.6201">ReverseProxy</text><path d="M194.3413,411.9219 L194.3413,435.9219 M194.3413,423.9219 L211.3413,423.9219 " fill="none" style="stroke:#181818;stroke-width:0.5;"/><ellipse cx="223.3413" cy="423.9219" fill="#E2E2F0" rx="12" ry="12" style="stroke:#181818;stroke-width:0.5;"/><text fill="#000000" font-family="sans-serif" font-size="14" lengthAdjust="spacing" textLength="76.5557" x="390.8496" y="77.9951">PageModel</text><ellipse cx="432.1274" cy="49" fill="#E2E2F0" rx="12" ry="12" style="stroke:#181818;stroke-width:0.5;"/><polygon fill="#181818" points="428.1274,37,434.1274,32,432.1274,37,434.1274,42,428.1274,37" style="stroke:#181818;stroke-width:1;"/><text fill="#000000" font-family="sans-serif" font-size="14" lengthAdjust="spacing" textLength="76.5557" x="390.8496" y="404.6201">PageModel</text><ellipse cx="432.1274" cy="423.9219" fill="#E2E2F0" rx="12" ry="12" style="stroke:#181818;stroke-width:0.5;"/><polygon fill="#181818" points="428.1274,411.9219,434.1274,406.9219,432.1274,411.9219,434.1274,416.9219,428.1274,411.9219" style="stroke:#181818;stroke-width:1;"/><text fill="#000000" font-family="sans-serif" font-size="14" lengthAdjust="spacing" textLength="96.5029" x="636.686" y="77.9951">CheepService</text><ellipse cx="687.9375" cy="49" fill="#E2E2F0" rx="12" ry="12" style="stroke:#181818;stroke-width:0.5;"/><polygon fill="#181818" points="683.9375,37,689.9375,32,687.9375,37,689.9375,42,683.9375,37" style="stroke:#181818;stroke-width:1;"/><text fill="#000000" font-family="sans-serif" font-size="14" lengthAdjust="spacing" textLength="96.5029" x="636.686" y="404.6201">CheepService</text><ellipse cx="687.9375" cy="423.9219" fill="#E2E2F0" rx="12" ry="12" style="stroke:#181818;stroke-width:0.5;"/><polygon fill="#181818" points="683.9375,411.9219,689.9375,406.9219,687.9375,411.9219,689.9375,416.9219,683.9375,411.9219" style="stroke:#181818;stroke-width:1;"/><text fill="#000000" font-family="sans-serif" font-size="14" lengthAdjust="spacing" textLength="119.834" x="880.8306" y="77.9951">CheepRepository</text><ellipse cx="943.7476" cy="49" fill="#E2E2F0" rx="12" ry="12" style="stroke:#181818;stroke-width:0.5;"/><polygon fill="#181818" points="939.7476,37,945.7476,32,943.7476,37,945.7476,42,939.7476,37" style="stroke:#181818;stroke-width:1;"/><text fill="#000000" font-family="sans-serif" font-size="14" lengthAdjust="spacing" textLength="119.834" x="880.8306" y="404.6201">CheepRepository</text><ellipse cx="943.7476" cy="423.9219" fill="#E2E2F0" rx="12" ry="12" style="stroke:#181818;stroke-width:0.5;"/><polygon fill="#181818" points="939.7476,411.9219,945.7476,406.9219,943.7476,411.9219,945.7476,416.9219,939.7476,411.9219" style="stroke:#181818;stroke-width:1;"/><text fill="#000000" font-family="sans-serif" font-size="14" lengthAdjust="spacing" textLength="66.8008" x="1065.7271" y="77.9951">Database</text><path d="M1084.1274,29 C1084.1274,19 1102.1274,19 1102.1274,19 C1102.1274,19 1120.1274,19 1120.1274,29 L1120.1274,55 C1120.1274,65 1102.1274,65 1102.1274,65 C1102.1274,65 1084.1274,65 1084.1274,55 L1084.1274,29 " fill="#E2E2F0" style="stroke:#181818;stroke-width:1.5;"/><path d="M1084.1274,29 C1084.1274,39 1102.1274,39 1102.1274,39 C1102.1274,39 1120.1274,39 1120.1274,29 " fill="none" style="stroke:#181818;stroke-width:1.5;"/><text fill="#000000" font-family="sans-serif" font-size="14" lengthAdjust="spacing" textLength="66.8008" x="1065.7271" y="404.6201">Database</text><path d="M1084.1274,417.9219 C1084.1274,407.9219 1102.1274,407.9219 1102.1274,407.9219 C1102.1274,407.9219 1120.1274,407.9219 1120.1274,417.9219 L1120.1274,443.9219 C1120.1274,453.9219 1102.1274,453.9219 1102.1274,453.9219 C1102.1274,453.9219 1084.1274,453.9219 1084.1274,443.9219 L1084.1274,417.9219 " fill="#E2E2F0" style="stroke:#181818;stroke-width:1.5;"/><path d="M1084.1274,417.9219 C1084.1274,427.9219 1102.1274,427.9219 1102.1274,427.9219 C1102.1274,427.9219 1120.1274,427.9219 1120.1274,417.9219 " fill="none" style="stroke:#181818;stroke-width:1.5;"/><polygon fill="#181818" points="202.8413,108.4297,212.8413,112.4297,202.8413,116.4297,206.8413,112.4297" style="stroke:#181818;stroke-width:1;"/><line style="stroke:#181818;stroke-width:1;" x1="23.9551" x2="208.8413" y1="112.4297" y2="112.4297"/><text fill="#000000" font-family="sans-serif" font-size="13" lengthAdjust="spacing" textLength="84.3286" x="30.9551" y="107.3638">HTTP GET "/"</text><polygon fill="#181818" points="420.1274,137.5625,430.1274,141.5625,420.1274,145.5625,424.1274,141.5625" style="stroke:#181818;stroke-width:1;"/><line style="stroke:#181818;stroke-width:1;" x1="214.8413" x2="426.1274" y1="141.5625" y2="141.5625"/><text fill="#000000" font-family="sans-serif" font-size="13" lengthAdjust="spacing" textLength="193.2861" x="221.8413" y="136.4966">Route to PublicModel.OnGet()</text><polygon fill="#181818" points="675.9375,166.6953,685.9375,170.6953,675.9375,174.6953,679.9375,170.6953" style="stroke:#181818;stroke-width:1;"/><line style="stroke:#181818;stroke-width:1;" x1="432.1274" x2="681.9375" y1="170.6953" y2="170.6953"/><text fill="#000000" font-family="sans-serif" font-size="13" lengthAdjust="spacing" textLength="173.9448" x="439.1274" y="165.6294">GetCheepsAsync(int page)</text><polygon fill="#181818" points="931.7476,195.8281,941.7476,199.8281,931.7476,203.8281,935.7476,199.8281" style="stroke:#181818;stroke-width:1;"/><line style="stroke:#181818;stroke-width:1;" x1="687.9375" x2="937.7476" y1="199.8281" y2="199.8281"/><text fill="#000000" font-family="sans-serif" font-size="13" lengthAdjust="spacing" textLength="173.9448" x="694.9375" y="194.7622">GetCheepsAsync(int page)</text><polygon fill="#181818" points="1090.1274,224.9609,1100.1274,228.9609,1090.1274,232.9609,1094.1274,228.9609" style="stroke:#181818;stroke-width:1;"/><line style="stroke:#181818;stroke-width:1;" x1="943.7476" x2="1096.1274" y1="228.9609" y2="228.9609"/><text fill="#000000" font-family="sans-serif" font-size="13" lengthAdjust="spacing" textLength="131.8789" x="950.7476" y="223.895">Query Cheeps Table</text><polygon fill="#181818" points="954.7476,254.0938,944.7476,258.0938,954.7476,262.0938,950.7476,258.0938" style="stroke:#181818;stroke-width:1;"/><line style="stroke:#181818;stroke-width:1;stroke-dasharray:2.0,2.0;" x1="948.7476" x2="1101.1274" y1="258.0938" y2="258.0938"/><text fill="#000000" font-family="sans-serif" font-size="13" lengthAdjust="spacing" textLength="134.3799" x="960.7476" y="253.0278">Return list of cheeps</text><polygon fill="#181818" points="698.9375,283.2266,688.9375,287.2266,698.9375,291.2266,694.9375,287.2266" style="stroke:#181818;stroke-width:1;"/><line style="stroke:#181818;stroke-width:1;stroke-dasharray:2.0,2.0;" x1="692.9375" x2="942.7476" y1="287.2266" y2="287.2266"/><text fill="#000000" font-family="sans-serif" font-size="13" lengthAdjust="spacing" textLength="231.8101" x="704.9375" y="282.1606">(List&lt;CheepDTO&gt;, int totalCheeps)</text><polygon fill="#181818" points="443.1274,312.3594,433.1274,316.3594,443.1274,320.3594,439.1274,316.3594" style="stroke:#181818;stroke-width:1;"/><line style="stroke:#181818;stroke-width:1;stroke-dasharray:2.0,2.0;" x1="437.1274" x2="686.9375" y1="316.3594" y2="316.3594"/><text fill="#000000" font-family="sans-serif" font-size="13" lengthAdjust="spacing" textLength="231.8101" x="449.1274" y="311.2935">(List&lt;CheepDTO&gt;, int totalCheeps)</text><polygon fill="#181818" points="225.8413,341.4922,215.8413,345.4922,225.8413,349.4922,221.8413,345.4922" style="stroke:#181818;stroke-width:1;"/><line style="stroke:#181818;stroke-width:1;stroke-dasharray:2.0,2.0;" x1="219.8413" x2="431.1274" y1="345.4922" y2="345.4922"/><text fill="#000000" font-family="sans-serif" font-size="13" lengthAdjust="spacing" textLength="106.2915" x="231.8413" y="340.4263">Pass PageResult</text><polygon fill="#181818" points="34.9551,370.625,24.9551,374.625,34.9551,378.625,30.9551,374.625" style="stroke:#181818;stroke-width:1;"/><line style="stroke:#181818;stroke-width:1;stroke-dasharray:2.0,2.0;" x1="28.9551" x2="213.8413" y1="374.625" y2="374.625"/><text fill="#000000" font-family="sans-serif" font-size="13" lengthAdjust="spacing" textLength="166.8862" x="40.9551" y="369.5591">Rendered HTML response</text><!--SRC=[XL51JiCm4Bpx5QkUKed2FKAL44NbqAeXX0SupWAHB6_atLJazzWfJPC6gJThFBEpiwEDa8SFHgzAQbsbVGSv7j4pPfv-EcN8YISBcVx2FLLe1-Jv6x5vHt-i3Kx171lYEWpkLAL5bveHDdyFfQ8PhDOJcnHUYoA3xKi1YuU56dz5wc2UGawj80X1rfQsDZrwVt1Rb6If1buKZVTB8H1wW9-uSoQfdK0Js4irfWsoIu9RoWipYiyfKtXhCK0d8HIwjAZEdx3wpoP7QRq3MxC0VOBfbNEFMR1a5nIFFROf3kixY0iAYROdy-k4qtFULezkEYijqypzj1ovjNBLMw37hcCqLw77AfIytu57RiWn_W80]--></g></svg>