<svg xmlns="http://www.w3.org/2000/svg" xmlns:xlink="http://www.w3.org/1999/xlink" contentStyleType="text/css" height="531px" preserveAspectRatio="none" style="width:1143px;height:531px;background:#FFFFFF;" version="1.1" viewBox="0 0 1143 531" width="1143px" zoomAndPan="magnify"><defs/><g><line style="stroke:#181818;stroke-width:0.5;stroke-dasharray:5.0,5.0;" x1="28" x2="28" y1="81.2969" y2="450.8906"/><line style="stroke:#181818;stroke-width:0.5;stroke-dasharray:5.0,5.0;" x1="218.9409" x2="218.9409" y1="81.2969" y2="450.8906"/><line style="stroke:#181818;stroke-width:0.5;stroke-dasharray:5.0,5.0;" x1="436.1597" x2="436.1597" y1="81.2969" y2="450.8906"/><line style="stroke:#181818;stroke-width:0.5;stroke-dasharray:5.0,5.0;" x1="691.9961" x2="691.9961" y1="81.2969" y2="450.8906"/><line style="stroke:#181818;stroke-width:0.5;stroke-dasharray:5.0,5.0;" x1="947.1406" x2="947.1406" y1="81.2969" y2="450.8906"/><line style="stroke:#181818;stroke-width:0.5;stroke-dasharray:5.0,5.0;" x1="1106.0371" x2="1106.0371" y1="81.2969" y2="450.8906"/><text fill="#000000" font-family="sans-serif" font-size="14" lengthAdjust="spacing" textLength="40.5303" x="5" y="77.9951">Client</text><ellipse cx="28.2651" cy="13.5" fill="#E2E2F0" rx="8" ry="8" style="stroke:#181818;stroke-width:0.5;"/><path d="M28.2651,21.5 L28.2651,48.5 M15.2651,29.5 L41.2651,29.5 M28.2651,48.5 L15.2651,63.5 M28.2651,48.5 L41.2651,63.5 " fill="none" style="stroke:#181818;stroke-width:0.5;"/><text fill="#000000" font-family="sans-serif" font-size="14" lengthAdjust="spacing" textLength="40.5303" x="5" y="462.8857">Client</text><ellipse cx="28.2651" cy="474.6875" fill="#E2E2F0" rx="8" ry="8" style="stroke:#181818;stroke-width:0.5;"/><path d="M28.2651,482.6875 L28.2651,509.6875 M15.2651,490.6875 L41.2651,490.6875 M28.2651,509.6875 L15.2651,524.6875 M28.2651,509.6875 L41.2651,524.6875 " fill="none" style="stroke:#181818;stroke-width:0.5;"/><text fill="#000000" font-family="sans-serif" font-size="14" lengthAdjust="spacing" textLength="124.4209" x="153.9409" y="77.9951">Azure_WebServer</text><path d="M198.6514,37 L198.6514,61 M198.6514,49 L215.6514,49 " fill="none" style="stroke:#181818;stroke-width:0.5;"/><ellipse cx="227.6514" cy="49" fill="#E2E2F0" rx="12" ry="12" style="stroke:#181818;stroke-width:0.5;"/><text fill="#000000" font-family="sans-serif" font-size="14" lengthAdjust="spacing" textLength="124.4209" x="153.9409" y="462.8857">Azure_WebServer</text><path d="M198.6514,470.1875 L198.6514,494.1875 M198.6514,482.1875 L215.6514,482.1875 " fill="none" style="stroke:#181818;stroke-width:0.5;"/><ellipse cx="227.6514" cy="482.1875" fill="#E2E2F0" rx="12" ry="12" style="stroke:#181818;stroke-width:0.5;"/><text fill="#000000" font-family="sans-serif" font-size="14" lengthAdjust="spacing" textLength="76.5557" x="395.1597" y="77.9951">PageModel</text><ellipse cx="436.4375" cy="49" fill="#E2E2F0" rx="12" ry="12" style="stroke:#181818;stroke-width:0.5;"/><polygon fill="#181818" points="432.4375,37,438.4375,32,436.4375,37,438.4375,42,432.4375,37" style="stroke:#181818;stroke-width:1;"/><text fill="#000000" font-family="sans-serif" font-size="14" lengthAdjust="spacing" textLength="76.5557" x="395.1597" y="462.8857">PageModel</text><ellipse cx="436.4375" cy="482.1875" fill="#E2E2F0" rx="12" ry="12" style="stroke:#181818;stroke-width:0.5;"/><polygon fill="#181818" points="432.4375,470.1875,438.4375,465.1875,436.4375,470.1875,438.4375,475.1875,432.4375,470.1875" style="stroke:#181818;stroke-width:1;"/><text fill="#000000" font-family="sans-serif" font-size="14" lengthAdjust="spacing" textLength="96.5029" x="640.9961" y="77.9951">CheepService</text><ellipse cx="692.2476" cy="49" fill="#E2E2F0" rx="12" ry="12" style="stroke:#181818;stroke-width:0.5;"/><polygon fill="#181818" points="688.2476,37,694.2476,32,692.2476,37,694.2476,42,688.2476,37" style="stroke:#181818;stroke-width:1;"/><text fill="#000000" font-family="sans-serif" font-size="14" lengthAdjust="spacing" textLength="96.5029" x="640.9961" y="462.8857">CheepService</text><ellipse cx="692.2476" cy="482.1875" fill="#E2E2F0" rx="12" ry="12" style="stroke:#181818;stroke-width:0.5;"/><polygon fill="#181818" points="688.2476,470.1875,694.2476,465.1875,692.2476,470.1875,694.2476,475.1875,688.2476,470.1875" style="stroke:#181818;stroke-width:1;"/><text fill="#000000" font-family="sans-serif" font-size="14" lengthAdjust="spacing" textLength="119.834" x="885.1406" y="77.9951">CheepRepository</text><ellipse cx="948.0576" cy="49" fill="#E2E2F0" rx="12" ry="12" style="stroke:#181818;stroke-width:0.5;"/><polygon fill="#181818" points="944.0576,37,950.0576,32,948.0576,37,950.0576,42,944.0576,37" style="stroke:#181818;stroke-width:1;"/><text fill="#000000" font-family="sans-serif" font-size="14" lengthAdjust="spacing" textLength="119.834" x="885.1406" y="462.8857">CheepRepository</text><ellipse cx="948.0576" cy="482.1875" fill="#E2E2F0" rx="12" ry="12" style="stroke:#181818;stroke-width:0.5;"/><polygon fill="#181818" points="944.0576,470.1875,950.0576,465.1875,948.0576,470.1875,950.0576,475.1875,944.0576,470.1875" style="stroke:#181818;stroke-width:1;"/><text fill="#000000" font-family="sans-serif" font-size="14" lengthAdjust="spacing" textLength="66.8008" x="1070.0371" y="77.9951">Database</text><path d="M1088.4375,29 C1088.4375,19 1106.4375,19 1106.4375,19 C1106.4375,19 1124.4375,19 1124.4375,29 L1124.4375,55 C1124.4375,65 1106.4375,65 1106.4375,65 C1106.4375,65 1088.4375,65 1088.4375,55 L1088.4375,29 " fill="#E2E2F0" style="stroke:#181818;stroke-width:1.5;"/><path d="M1088.4375,29 C1088.4375,39 1106.4375,39 1106.4375,39 C1106.4375,39 1124.4375,39 1124.4375,29 " fill="none" style="stroke:#181818;stroke-width:1.5;"/><text fill="#000000" font-family="sans-serif" font-size="14" lengthAdjust="spacing" textLength="66.8008" x="1070.0371" y="462.8857">Database</text><path d="M1088.4375,476.1875 C1088.4375,466.1875 1106.4375,466.1875 1106.4375,466.1875 C1106.4375,466.1875 1124.4375,466.1875 1124.4375,476.1875 L1124.4375,502.1875 C1124.4375,512.1875 1106.4375,512.1875 1106.4375,512.1875 C1106.4375,512.1875 1088.4375,512.1875 1088.4375,502.1875 L1088.4375,476.1875 " fill="#E2E2F0" style="stroke:#181818;stroke-width:1.5;"/><path d="M1088.4375,476.1875 C1088.4375,486.1875 1106.4375,486.1875 1106.4375,486.1875 C1106.4375,486.1875 1124.4375,486.1875 1124.4375,476.1875 " fill="none" style="stroke:#181818;stroke-width:1.5;"/><polygon fill="#181818" points="207.1514,108.4297,217.1514,112.4297,207.1514,116.4297,211.1514,112.4297" style="stroke:#181818;stroke-width:1;"/><line style="stroke:#181818;stroke-width:1;" x1="28.2651" x2="213.1514" y1="112.4297" y2="112.4297"/><text fill="#000000" font-family="sans-serif" font-size="13" lengthAdjust="spacing" textLength="84.3286" x="35.2651" y="107.3638">HTTP GET "/"</text><polygon fill="#181818" points="39.2651,137.5625,29.2651,141.5625,39.2651,145.5625,35.2651,141.5625" style="stroke:#181818;stroke-width:1;"/><line style="stroke:#181818;stroke-width:1;" x1="33.2651" x2="218.1514" y1="141.5625" y2="141.5625"/><text fill="#000000" font-family="sans-serif" font-size="13" lengthAdjust="spacing" textLength="117.5459" x="45.2651" y="136.4966">Redirect to HTTPS</text><polygon fill="#181818" points="207.1514,166.6953,217.1514,170.6953,207.1514,174.6953,211.1514,170.6953" style="stroke:#181818;stroke-width:1;"/><line style="stroke:#181818;stroke-width:1;" x1="28.2651" x2="213.1514" y1="170.6953" y2="170.6953"/><text fill="#000000" font-family="sans-serif" font-size="13" lengthAdjust="spacing" textLength="92.5806" x="35.2651" y="165.6294">HTTPS GET "/"</text><polygon fill="#181818" points="424.4375,195.8281,434.4375,199.8281,424.4375,203.8281,428.4375,199.8281" style="stroke:#181818;stroke-width:1;"/><line style="stroke:#181818;stroke-width:1;" x1="219.1514" x2="430.4375" y1="199.8281" y2="199.8281"/><text fill="#000000" font-family="sans-serif" font-size="13" lengthAdjust="spacing" textLength="193.2861" x="226.1514" y="194.7622">Route to PublicModel.OnGet()</text><polygon fill="#181818" points="680.2476,224.9609,690.2476,228.9609,680.2476,232.9609,684.2476,228.9609" style="stroke:#181818;stroke-width:1;"/><line style="stroke:#181818;stroke-width:1;" x1="436.4375" x2="686.2476" y1="228.9609" y2="228.9609"/><text fill="#000000" font-family="sans-serif" font-size="13" lengthAdjust="spacing" textLength="173.9448" x="443.4375" y="223.895">GetCheepsAsync(int page)</text><polygon fill="#181818" points="936.0576,254.0938,946.0576,258.0938,936.0576,262.0938,940.0576,258.0938" style="stroke:#181818;stroke-width:1;"/><line style="stroke:#181818;stroke-width:1;" x1="692.2476" x2="942.0576" y1="258.0938" y2="258.0938"/><text fill="#000000" font-family="sans-serif" font-size="13" lengthAdjust="spacing" textLength="173.9448" x="699.2476" y="253.0278">GetCheepsAsync(int page)</text><polygon fill="#181818" points="1094.4375,283.2266,1104.4375,287.2266,1094.4375,291.2266,1098.4375,287.2266" style="stroke:#181818;stroke-width:1;"/><line style="stroke:#181818;stroke-width:1;" x1="948.0576" x2="1100.4375" y1="287.2266" y2="287.2266"/><text fill="#000000" font-family="sans-serif" font-size="13" lengthAdjust="spacing" textLength="131.8789" x="955.0576" y="282.1606">Query Cheeps Table</text><polygon fill="#181818" points="959.0576,312.3594,949.0576,316.3594,959.0576,320.3594,955.0576,316.3594" style="stroke:#181818;stroke-width:1;"/><line style="stroke:#181818;stroke-width:1;stroke-dasharray:2.0,2.0;" x1="953.0576" x2="1105.4375" y1="316.3594" y2="316.3594"/><text fill="#000000" font-family="sans-serif" font-size="13" lengthAdjust="spacing" textLength="134.3799" x="965.0576" y="311.2935">Return list of cheeps</text><polygon fill="#181818" points="703.2476,341.4922,693.2476,345.4922,703.2476,349.4922,699.2476,345.4922" style="stroke:#181818;stroke-width:1;"/><line style="stroke:#181818;stroke-width:1;stroke-dasharray:2.0,2.0;" x1="697.2476" x2="947.0576" y1="345.4922" y2="345.4922"/><text fill="#000000" font-family="sans-serif" font-size="13" lengthAdjust="spacing" textLength="231.8101" x="709.2476" y="340.4263">(List&lt;CheepDTO&gt;, int totalCheeps)</text><polygon fill="#181818" points="447.4375,370.625,437.4375,374.625,447.4375,378.625,443.4375,374.625" style="stroke:#181818;stroke-width:1;"/><line style="stroke:#181818;stroke-width:1;stroke-dasharray:2.0,2.0;" x1="441.4375" x2="691.2476" y1="374.625" y2="374.625"/><text fill="#000000" font-family="sans-serif" font-size="13" lengthAdjust="spacing" textLength="231.8101" x="453.4375" y="369.5591">(List&lt;CheepDTO&gt;, int totalCheeps)</text><polygon fill="#181818" points="230.1514,399.7578,220.1514,403.7578,230.1514,407.7578,226.1514,403.7578" style="stroke:#181818;stroke-width:1;"/><line style="stroke:#181818;stroke-width:1;stroke-dasharray:2.0,2.0;" x1="224.1514" x2="435.4375" y1="403.7578" y2="403.7578"/><text fill="#000000" font-family="sans-serif" font-size="13" lengthAdjust="spacing" textLength="106.2915" x="236.1514" y="398.6919">Pass PageResult</text><polygon fill="#181818" points="39.2651,428.8906,29.2651,432.8906,39.2651,436.8906,35.2651,432.8906" style="stroke:#181818;stroke-width:1;"/><line style="stroke:#181818;stroke-width:1;stroke-dasharray:2.0,2.0;" x1="33.2651" x2="218.1514" y1="432.8906" y2="432.8906"/><text fill="#000000" font-family="sans-serif" font-size="13" lengthAdjust="spacing" textLength="166.8862" x="45.2651" y="427.8247">Rendered HTML response</text><!--SRC=[XP5FQm8n4CNl-HI3fnLgUr-A85hiGN6xRkcnP9Df6mZ9aamAzjCtYTrrhOAtyF9-y-OF5sGTBBL2Gy0zl7fqhBN1IEuEiFW93j_ViDsZ-qQN35bYmXfoLaF5Ft5h9Uf1MNuXTick19wBDNRMgnXtO98JRxb7MFqz64l1C9iVwvVmt3GLh9yQc3nCMDRIPpALKADK3WK1sUpRNuFtb_JGR2nX0s7Ygz1g9R9wlpDhf6BA1b-2nlEK40rPy0j_CA9GSMbTT4_Ps3PWfublaITdWlkjbF0IC4f741hUQcJz9yoknTH8mHdGoXFO3n2PlCou6ApOHE8nQwjcDx-3r21PuleO_d_2ytNUfaSxFTsfujxdCZNweAc_rEZGHg936G-wtO13trdZyHS0]--></g></svg>