<svg xmlns="http://www.w3.org/2000/svg" xmlns:xlink="http://www.w3.org/1999/xlink" contentStyleType="text/css" height="844px" preserveAspectRatio="none" style="width:741px;height:844px;background:#FFFFFF;" version="1.1" viewBox="0 0 741 844" width="741px" zoomAndPan="magnify"><defs/><g><rect fill="none" height="230.9297" style="stroke:#000000;stroke-width:1.5;" width="560.3311" x="174.9341" y="399.4922"/><line style="stroke:#181818;stroke-width:0.5;stroke-dasharray:5.0,5.0;" x1="31" x2="31" y1="81.2969" y2="763.9531"/><line style="stroke:#181818;stroke-width:0.5;stroke-dasharray:5.0,5.0;" x1="223.9341" x2="223.9341" y1="81.2969" y2="763.9531"/><line style="stroke:#181818;stroke-width:0.5;stroke-dasharray:5.0,5.0;" x1="359.5991" x2="359.5991" y1="81.2969" y2="763.9531"/><line style="stroke:#181818;stroke-width:0.5;stroke-dasharray:5.0,5.0;" x1="608.2158" x2="608.2158" y1="81.2969" y2="763.9531"/><rect fill="#E2E2F0" height="30.2969" rx="2.5" ry="2.5" style="stroke:#181818;stroke-width:0.5;" width="53.3818" x="5" y="50"/><text fill="#000000" font-family="sans-serif" font-size="14" lengthAdjust="spacing" textLength="39.3818" x="12" y="69.9951">Team</text><rect fill="#E2E2F0" height="30.2969" rx="2.5" ry="2.5" style="stroke:#181818;stroke-width:0.5;" width="53.3818" x="5" y="762.9531"/><text fill="#000000" font-family="sans-serif" font-size="14" lengthAdjust="spacing" textLength="39.3818" x="12" y="782.9482">Team</text><text fill="#000000" font-family="sans-serif" font-size="14" lengthAdjust="spacing" textLength="72.0029" x="184.9341" y="77.9951">Developer</text><ellipse cx="223.9355" cy="13.5" fill="#E2E2F0" rx="8" ry="8" style="stroke:#181818;stroke-width:0.5;"/><path d="M223.9355,21.5 L223.9355,48.5 M210.9355,29.5 L236.9355,29.5 M223.9355,48.5 L210.9355,63.5 M223.9355,48.5 L236.9355,63.5 " fill="none" style="stroke:#181818;stroke-width:0.5;"/><text fill="#000000" font-family="sans-serif" font-size="14" lengthAdjust="spacing" textLength="72.0029" x="184.9341" y="775.9482">Developer</text><ellipse cx="223.9355" cy="787.75" fill="#E2E2F0" rx="8" ry="8" style="stroke:#181818;stroke-width:0.5;"/><path d="M223.9355,795.75 L223.9355,822.75 M210.9355,803.75 L236.9355,803.75 M223.9355,822.75 L210.9355,837.75 M223.9355,822.75 L236.9355,837.75 " fill="none" style="stroke:#181818;stroke-width:0.5;"/><text fill="#000000" font-family="sans-serif" font-size="14" lengthAdjust="spacing" textLength="64.9482" x="324.5991" y="77.9951">Reviewer</text><ellipse cx="360.0732" cy="13.5" fill="#E2E2F0" rx="8" ry="8" style="stroke:#181818;stroke-width:0.5;"/><path d="M360.0732,21.5 L360.0732,48.5 M347.0732,29.5 L373.0732,29.5 M360.0732,48.5 L347.0732,63.5 M360.0732,48.5 L373.0732,63.5 " fill="none" style="stroke:#181818;stroke-width:0.5;"/><text fill="#000000" font-family="sans-serif" font-size="14" lengthAdjust="spacing" textLength="64.9482" x="324.5991" y="775.9482">Reviewer</text><ellipse cx="360.0732" cy="787.75" fill="#E2E2F0" rx="8" ry="8" style="stroke:#181818;stroke-width:0.5;"/><path d="M360.0732,795.75 L360.0732,822.75 M347.0732,803.75 L373.0732,803.75 M360.0732,822.75 L347.0732,837.75 M360.0732,822.75 L373.0732,837.75 " fill="none" style="stroke:#181818;stroke-width:0.5;"/><text fill="#000000" font-family="sans-serif" font-size="14" lengthAdjust="spacing" textLength="128.0371" x="541.2158" y="77.9951">GitHub Repository</text><ellipse cx="608.2344" cy="49" fill="#E2E2F0" rx="12" ry="12" style="stroke:#181818;stroke-width:0.5;"/><line style="stroke:#181818;stroke-width:0.5;" x1="596.2344" x2="620.2344" y1="63" y2="63"/><text fill="#000000" font-family="sans-serif" font-size="14" lengthAdjust="spacing" textLength="128.0371" x="541.2158" y="775.9482">GitHub Repository</text><ellipse cx="608.2344" cy="795.25" fill="#E2E2F0" rx="12" ry="12" style="stroke:#181818;stroke-width:0.5;"/><line style="stroke:#181818;stroke-width:0.5;" x1="596.2344" x2="620.2344" y1="809.25" y2="809.25"/><polygon fill="#181818" points="596.2344,108.4297,606.2344,112.4297,596.2344,116.4297,600.2344,112.4297" style="stroke:#181818;stroke-width:1;"/><line style="stroke:#181818;stroke-width:1;" x1="31.6909" x2="602.2344" y1="112.4297" y2="112.4297"/><text fill="#000000" font-family="sans-serif" font-size="13" lengthAdjust="spacing" textLength="112.0107" x="38.6909" y="107.3638">Create new issue</text><polygon fill="#181818" points="211.9355,137.5625,221.9355,141.5625,211.9355,145.5625,215.9355,141.5625" style="stroke:#181818;stroke-width:1;"/><line style="stroke:#181818;stroke-width:1;" x1="31.6909" x2="217.9355" y1="141.5625" y2="141.5625"/><text fill="#000000" font-family="sans-serif" font-size="13" lengthAdjust="spacing" textLength="168.2446" x="38.6909" y="136.4966">Assign issue to Developer</text><polygon fill="#181818" points="596.2344,166.6953,606.2344,170.6953,596.2344,174.6953,600.2344,170.6953" style="stroke:#181818;stroke-width:1;"/><line style="stroke:#181818;stroke-width:1;" x1="223.9355" x2="602.2344" y1="170.6953" y2="170.6953"/><text fill="#000000" font-family="sans-serif" font-size="13" lengthAdjust="spacing" textLength="123.8047" x="230.9355" y="165.6294">Create new branch</text><line style="stroke:#181818;stroke-width:1;" x1="223.9355" x2="265.9355" y1="199.8281" y2="199.8281"/><line style="stroke:#181818;stroke-width:1;" x1="265.9355" x2="265.9355" y1="199.8281" y2="212.8281"/><line style="stroke:#181818;stroke-width:1;" x1="224.9355" x2="265.9355" y1="212.8281" y2="212.8281"/><polygon fill="#181818" points="234.9355,208.8281,224.9355,212.8281,234.9355,216.8281,230.9355,212.8281" style="stroke:#181818;stroke-width:1;"/><text fill="#000000" font-family="sans-serif" font-size="13" lengthAdjust="spacing" textLength="104.8696" x="230.9355" y="194.7622">Develop feature</text><polygon fill="#181818" points="596.2344,237.9609,606.2344,241.9609,596.2344,245.9609,600.2344,241.9609" style="stroke:#181818;stroke-width:1;"/><line style="stroke:#181818;stroke-width:1;" x1="223.9355" x2="602.2344" y1="241.9609" y2="241.9609"/><text fill="#000000" font-family="sans-serif" font-size="13" lengthAdjust="spacing" textLength="156.3428" x="230.9355" y="236.895">Push changes to branch</text><polygon fill="#181818" points="596.2344,267.0938,606.2344,271.0938,596.2344,275.0938,600.2344,271.0938" style="stroke:#181818;stroke-width:1;"/><line style="stroke:#181818;stroke-width:1;" x1="223.9355" x2="602.2344" y1="271.0938" y2="271.0938"/><text fill="#000000" font-family="sans-serif" font-size="13" lengthAdjust="spacing" textLength="125.1631" x="230.9355" y="266.0278">Create pull request</text><line style="stroke:#181818;stroke-width:1;" x1="608.2344" x2="650.2344" y1="300.2266" y2="300.2266"/><line style="stroke:#181818;stroke-width:1;" x1="650.2344" x2="650.2344" y1="300.2266" y2="313.2266"/><line style="stroke:#181818;stroke-width:1;" x1="609.2344" x2="650.2344" y1="313.2266" y2="313.2266"/><polygon fill="#181818" points="619.2344,309.2266,609.2344,313.2266,619.2344,317.2266,615.2344,313.2266" style="stroke:#181818;stroke-width:1;"/><text fill="#000000" font-family="sans-serif" font-size="13" lengthAdjust="spacing" textLength="108.0308" x="615.2344" y="295.1606">Automated tests</text><polygon fill="#181818" points="348.0732,338.3594,358.0732,342.3594,348.0732,346.3594,352.0732,342.3594" style="stroke:#181818;stroke-width:1;"/><line style="stroke:#181818;stroke-width:1;" x1="223.9355" x2="354.0732" y1="342.3594" y2="342.3594"/><text fill="#000000" font-family="sans-serif" font-size="13" lengthAdjust="spacing" textLength="100.8008" x="230.9355" y="337.2935">Request review</text><line style="stroke:#181818;stroke-width:1;" x1="360.0732" x2="402.0732" y1="371.4922" y2="371.4922"/><line style="stroke:#181818;stroke-width:1;" x1="402.0732" x2="402.0732" y1="371.4922" y2="384.4922"/><line style="stroke:#181818;stroke-width:1;" x1="361.0732" x2="402.0732" y1="384.4922" y2="384.4922"/><polygon fill="#181818" points="371.0732,380.4922,361.0732,384.4922,371.0732,388.4922,367.0732,384.4922" style="stroke:#181818;stroke-width:1;"/><text fill="#000000" font-family="sans-serif" font-size="13" lengthAdjust="spacing" textLength="82.4497" x="367.0732" y="366.4263">Review code</text><path d="M174.9341,399.4922 L263.4536,399.4922 L263.4536,406.625 L253.4536,416.625 L174.9341,416.625 L174.9341,399.4922 " fill="#EEEEEE" style="stroke:#000000;stroke-width:1.5;"/><rect fill="none" height="230.9297" style="stroke:#000000;stroke-width:1.5;" width="560.3311" x="174.9341" y="399.4922"/><text fill="#000000" font-family="sans-serif" font-size="13" font-weight="bold" lengthAdjust="spacing" textLength="38.9937" x="189.9341" y="412.5591">while</text><text fill="#000000" font-family="sans-serif" font-size="11" font-weight="bold" lengthAdjust="spacing" textLength="109.1836" x="278.4536" y="411.7026">[Code has issues]</text><polygon fill="#181818" points="234.9355,433.7578,224.9355,437.7578,234.9355,441.7578,230.9355,437.7578" style="stroke:#181818;stroke-width:1;"/><line style="stroke:#181818;stroke-width:1;" x1="228.9355" x2="359.0732" y1="437.7578" y2="437.7578"/><text fill="#000000" font-family="sans-serif" font-size="13" lengthAdjust="spacing" textLength="112.1377" x="240.9355" y="432.6919">Request changes</text><line style="stroke:#181818;stroke-width:1;" x1="223.9355" x2="265.9355" y1="466.8906" y2="466.8906"/><line style="stroke:#181818;stroke-width:1;" x1="265.9355" x2="265.9355" y1="466.8906" y2="479.8906"/><line style="stroke:#181818;stroke-width:1;" x1="224.9355" x2="265.9355" y1="479.8906" y2="479.8906"/><polygon fill="#181818" points="234.9355,475.8906,224.9355,479.8906,234.9355,483.8906,230.9355,479.8906" style="stroke:#181818;stroke-width:1;"/><text fill="#000000" font-family="sans-serif" font-size="13" lengthAdjust="spacing" textLength="93.4565" x="230.9355" y="461.8247">Make changes</text><polygon fill="#181818" points="596.2344,505.0234,606.2344,509.0234,596.2344,513.0234,600.2344,509.0234" style="stroke:#181818;stroke-width:1;"/><line style="stroke:#181818;stroke-width:1;" x1="223.9355" x2="602.2344" y1="509.0234" y2="509.0234"/><text fill="#000000" font-family="sans-serif" font-size="13" lengthAdjust="spacing" textLength="124.7632" x="230.9355" y="503.9575">Push updated code</text><line style="stroke:#181818;stroke-width:1;" x1="608.2344" x2="650.2344" y1="538.1563" y2="538.1563"/><line style="stroke:#181818;stroke-width:1;" x1="650.2344" x2="650.2344" y1="538.1563" y2="551.1563"/><line style="stroke:#181818;stroke-width:1;" x1="609.2344" x2="650.2344" y1="551.1563" y2="551.1563"/><polygon fill="#181818" points="619.2344,547.1563,609.2344,551.1563,619.2344,555.1563,615.2344,551.1563" style="stroke:#181818;stroke-width:1;"/><text fill="#000000" font-family="sans-serif" font-size="13" lengthAdjust="spacing" textLength="108.0308" x="615.2344" y="533.0903">Automated tests</text><polygon fill="#181818" points="348.0732,576.2891,358.0732,580.2891,348.0732,584.2891,352.0732,580.2891" style="stroke:#181818;stroke-width:1;"/><line style="stroke:#181818;stroke-width:1;" x1="223.9355" x2="354.0732" y1="580.2891" y2="580.2891"/><text fill="#000000" font-family="sans-serif" font-size="13" lengthAdjust="spacing" textLength="100.8008" x="230.9355" y="575.2231">Request review</text><line style="stroke:#181818;stroke-width:1;" x1="360.0732" x2="402.0732" y1="609.4219" y2="609.4219"/><line style="stroke:#181818;stroke-width:1;" x1="402.0732" x2="402.0732" y1="609.4219" y2="622.4219"/><line style="stroke:#181818;stroke-width:1;" x1="361.0732" x2="402.0732" y1="622.4219" y2="622.4219"/><polygon fill="#181818" points="371.0732,618.4219,361.0732,622.4219,371.0732,626.4219,367.0732,622.4219" style="stroke:#181818;stroke-width:1;"/><text fill="#000000" font-family="sans-serif" font-size="13" lengthAdjust="spacing" textLength="82.4497" x="367.0732" y="604.356">Review code</text><polygon fill="#181818" points="596.2344,654.5547,606.2344,658.5547,596.2344,662.5547,600.2344,658.5547" style="stroke:#181818;stroke-width:1;"/><line style="stroke:#181818;stroke-width:1;" x1="360.0732" x2="602.2344" y1="658.5547" y2="658.5547"/><text fill="#000000" font-family="sans-serif" font-size="13" lengthAdjust="spacing" textLength="136.0684" x="367.0732" y="653.4888">Approve pull request</text><polygon fill="#181818" points="596.2344,683.6875,606.2344,687.6875,596.2344,691.6875,600.2344,687.6875" style="stroke:#181818;stroke-width:1;"/><line style="stroke:#181818;stroke-width:1;" x1="360.0732" x2="602.2344" y1="687.6875" y2="687.6875"/><text fill="#000000" font-family="sans-serif" font-size="13" lengthAdjust="spacing" textLength="224.1611" x="367.0732" y="682.6216">Merge pull request to Main branch</text><polygon fill="#181818" points="596.2344,712.8203,606.2344,716.8203,596.2344,720.8203,600.2344,716.8203" style="stroke:#181818;stroke-width:1;"/><line style="stroke:#181818;stroke-width:1;" x1="360.0732" x2="602.2344" y1="716.8203" y2="716.8203"/><text fill="#000000" font-family="sans-serif" font-size="13" lengthAdjust="spacing" textLength="72.9409" x="367.0732" y="711.7544">Close issue</text><polygon fill="#181818" points="596.2344,741.9531,606.2344,745.9531,596.2344,749.9531,600.2344,745.9531" style="stroke:#181818;stroke-width:1;"/><line style="stroke:#181818;stroke-width:1;" x1="360.0732" x2="602.2344" y1="745.9531" y2="745.9531"/><text fill="#000000" font-family="sans-serif" font-size="13" lengthAdjust="spacing" textLength="92.0347" x="367.0732" y="740.8872">Delete branch</text><!--SRC=[VPB1RiCW38RlF8NL-rvWXqbLAcsNI5ErsxG3JRm4ZGB3aAXlFuUaRPAISSBsvz_mWvC-g4evQG9ye3mBMGNhuO0TQklGJ_4HEuKzXsY22XVOlQhm5a-STvOK4vSTI4gX48CEFBsa29wXy2W3Wi4U5574M_qsXA4zaMhC242mimFSgQpaoKjJjKjgBZpjuPixeiUit7ka5gfMcWPf69xJN4vsKMlm-1kHWaYbExAFmPuPgY5mbTOoev7C7STsbXbIubPPKyCMAbkZQBoD3lfMQOJFWZFGikd9C_eIm6ikCdVXEckwP68tBIlb3swJSy-YgzD5q-d6-VzQaH7RicDzcmrBqDGhvyR1pddRFRpJ0rUYRvRKyFwbLERw2J9DXRQ4qr_Eb0-eaR_8sFy7]--></g></svg>