<svg xmlns="http://www.w3.org/2000/svg" xmlns:xlink="http://www.w3.org/1999/xlink" contentStyleType="text/css" height="1294px" preserveAspectRatio="none" style="width:628px;height:1294px;background:#FFFFFF;" version="1.1" viewBox="0 0 628 1294" width="628px" zoomAndPan="magnify"><defs/><g><path d="M99.1809,10 L99.1809,35.1328 A0,0 0 0 0 99.1809,35.1328 L224.3967,35.1328 A0,0 0 0 0 224.3967,35.1328 L224.3967,28 L244.3967,22.5664 L224.3967,20 L224.3967,20 L214.3967,10 L99.1809,10 A0,0 0 0 0 99.1809,10 " fill="#FEFFDD" style="stroke:#181818;stroke-width:0.5;"/><path d="M214.3967,10 L214.3967,20 L224.3967,20 L214.3967,10 " fill="#FEFFDD" style="stroke:#181818;stroke-width:0.5;"/><text fill="#000000" font-family="sans-serif" font-size="13" lengthAdjust="spacing" textLength="104.2158" x="105.1809" y="27.0669">Authorized User</text><ellipse cx="254.3967" cy="22.5664" fill="#222222" rx="10" ry="10" style="stroke:#222222;stroke-width:1;"/><rect fill="#F1F1F1" height="33.9688" rx="12.5" ry="12.5" style="stroke:#181818;stroke-width:0.5;" width="163.0566" x="172.8684" y="55.1328"/><text fill="#000000" font-family="sans-serif" font-size="12" lengthAdjust="spacing" textLength="143.0566" x="182.8684" y="76.2715">Display private timeline</text><polygon fill="#F1F1F1" points="183.7749,169.9063,325.0186,169.9063,337.0186,181.9063,325.0186,193.9063,183.7749,193.9063,171.7749,181.9063,183.7749,169.9063" style="stroke:#181818;stroke-width:0.5;"/><text fill="#000000" font-family="sans-serif" font-size="11" lengthAdjust="spacing" textLength="141.2437" x="183.7749" y="185.7144">View a different timeline?</text><text fill="#000000" font-family="sans-serif" font-size="11" lengthAdjust="spacing" textLength="14.9585" x="156.8164" y="179.312">No</text><text fill="#000000" font-family="sans-serif" font-size="11" lengthAdjust="spacing" textLength="19.2178" x="337.0186" y="179.312">Yes</text><rect fill="#F1F1F1" height="33.9688" rx="12.5" ry="12.5" style="stroke:#181818;stroke-width:0.5;" width="117.6523" x="45" y="300.7109"/><text fill="#000000" font-family="sans-serif" font-size="12" lengthAdjust="spacing" textLength="97.6523" x="55" y="321.8496">Click Forget Me!</text><ellipse cx="103.8262" cy="380.6797" fill="none" rx="11" ry="11" style="stroke:#222222;stroke-width:1;"/><ellipse cx="103.8262" cy="380.6797" fill="#222222" rx="6" ry="6" style="stroke:#222222;stroke-width:1;"/><polygon fill="#F1F1F1" points="69.0913,252.3086,138.561,252.3086,150.561,264.3086,138.561,276.3086,69.0913,276.3086,57.0913,264.3086,69.0913,252.3086" style="stroke:#181818;stroke-width:0.5;"/><text fill="#000000" font-family="sans-serif" font-size="11" lengthAdjust="spacing" textLength="19.2178" x="107.8262" y="286.519">Yes</text><text fill="#000000" font-family="sans-serif" font-size="11" lengthAdjust="spacing" textLength="69.4697" x="69.0913" y="268.1167">Delete user?</text><text fill="#000000" font-family="sans-serif" font-size="11" lengthAdjust="spacing" textLength="14.9585" x="150.561" y="261.7144">No</text><polygon fill="#F1F1F1" points="62.7668,203.9063,144.8855,203.9063,156.8855,215.9063,144.8855,227.9063,62.7668,227.9063,50.7668,215.9063,62.7668,203.9063" style="stroke:#181818;stroke-width:0.5;"/><text fill="#000000" font-family="sans-serif" font-size="11" lengthAdjust="spacing" textLength="19.2178" x="107.8262" y="238.1167">Yes</text><text fill="#000000" font-family="sans-serif" font-size="11" lengthAdjust="spacing" textLength="82.1187" x="62.7668" y="219.7144">View About Me</text><text fill="#000000" font-family="sans-serif" font-size="11" lengthAdjust="spacing" textLength="14.9585" x="156.8855" y="213.312">No</text><polygon fill="#F1F1F1" points="103.8262,446.4844,115.8262,458.4844,103.8262,470.4844,91.8262,458.4844,103.8262,446.4844" style="stroke:#181818;stroke-width:0.5;"/><polygon fill="#F1F1F1" points="343.8201,203.9063,466.1145,203.9063,478.1145,215.9063,466.1145,227.9063,343.8201,227.9063,331.8201,215.9063,343.8201,203.9063" style="stroke:#181818;stroke-width:0.5;"/><text fill="#000000" font-family="sans-serif" font-size="11" lengthAdjust="spacing" textLength="122.2944" x="343.8201" y="219.7144">On a private timeline?</text><text fill="#000000" font-family="sans-serif" font-size="11" lengthAdjust="spacing" textLength="19.2178" x="312.6023" y="213.312">Yes</text><text fill="#000000" font-family="sans-serif" font-size="11" lengthAdjust="spacing" textLength="14.9585" x="478.1145" y="213.312">No</text><rect fill="#F1F1F1" height="33.9688" rx="12.5" ry="12.5" style="stroke:#181818;stroke-width:0.5;" width="156.7344" x="236.6523" y="237.9063"/><text fill="#000000" font-family="sans-serif" font-size="12" lengthAdjust="spacing" textLength="136.7344" x="246.6523" y="259.0449">Display public timeline</text><rect fill="#F1F1F1" height="33.9688" rx="12.5" ry="12.5" style="stroke:#181818;stroke-width:0.5;" width="163.0566" x="413.3867" y="237.9063"/><text fill="#000000" font-family="sans-serif" font-size="12" lengthAdjust="spacing" textLength="143.0566" x="423.3867" y="259.0449">Display private timeline</text><rect fill="#F1F1F1" height="33.9688" rx="12.5" ry="12.5" style="stroke:#181818;stroke-width:0.5;" width="114.7285" x="437.5508" y="403.6797"/><text fill="#000000" font-family="sans-serif" font-size="12" lengthAdjust="spacing" textLength="94.7285" x="447.5508" y="424.8184">Write a new Bio</text><polygon fill="#F1F1F1" points="461.6626,355.2773,528.1675,355.2773,540.1675,367.2773,528.1675,379.2773,461.6626,379.2773,449.6626,367.2773,461.6626,355.2773" style="stroke:#181818;stroke-width:0.5;"/><text fill="#000000" font-family="sans-serif" font-size="11" lengthAdjust="spacing" textLength="19.2178" x="498.915" y="389.4878">Yes</text><text fill="#000000" font-family="sans-serif" font-size="11" lengthAdjust="spacing" textLength="66.5049" x="461.6626" y="371.0854">Update Bio?</text><text fill="#000000" font-family="sans-serif" font-size="11" lengthAdjust="spacing" textLength="14.9585" x="540.1675" y="364.6831">No</text><polygon fill="#F1F1F1" points="494.915,462.0508,506.915,474.0508,494.915,486.0508,482.915,474.0508,494.915,462.0508" style="stroke:#181818;stroke-width:0.5;"/><polygon fill="#F1F1F1" points="443.8601,306.875,545.97,306.875,557.97,318.875,545.97,330.875,443.8601,330.875,431.8601,318.875,443.8601,306.875" style="stroke:#181818;stroke-width:0.5;"/><text fill="#000000" font-family="sans-serif" font-size="11" lengthAdjust="spacing" textLength="19.2178" x="498.915" y="341.0854">Yes</text><text fill="#000000" font-family="sans-serif" font-size="11" lengthAdjust="spacing" textLength="102.1099" x="443.8601" y="322.6831">Is it your timeline?</text><text fill="#000000" font-family="sans-serif" font-size="11" lengthAdjust="spacing" textLength="14.9585" x="557.97" y="316.2808">No</text><polygon fill="#F1F1F1" points="494.915,506.0508,506.915,518.0508,494.915,530.0508,482.915,518.0508,494.915,506.0508" style="stroke:#181818;stroke-width:0.5;"/><polygon fill="#F1F1F1" points="404.9673,536.0508,416.9673,548.0508,404.9673,560.0508,392.9673,548.0508,404.9673,536.0508" style="stroke:#181818;stroke-width:0.5;"/><rect fill="#F1F1F1" height="33.9688" rx="12.5" ry="12.5" style="stroke:#181818;stroke-width:0.5;" width="146.2988" x="331.8179" y="628.4531"/><text fill="#000000" font-family="sans-serif" font-size="12" lengthAdjust="spacing" textLength="126.2988" x="341.8179" y="649.5918">Click Follow/Unfollow</text><polygon fill="#F1F1F1" points="332.0601,580.0508,477.8745,580.0508,489.8745,592.0508,477.8745,604.0508,332.0601,604.0508,320.0601,592.0508,332.0601,580.0508" style="stroke:#181818;stroke-width:0.5;"/><text fill="#000000" font-family="sans-serif" font-size="11" lengthAdjust="spacing" textLength="19.2178" x="408.9673" y="614.2612">Yes</text><text fill="#000000" font-family="sans-serif" font-size="11" lengthAdjust="spacing" textLength="145.8145" x="332.0601" y="595.8589">Follow/Unfollow someone?</text><text fill="#000000" font-family="sans-serif" font-size="11" lengthAdjust="spacing" textLength="14.9585" x="489.8745" y="589.4565">No</text><polygon fill="#F1F1F1" points="404.9673,682.4219,416.9673,694.4219,404.9673,706.4219,392.9673,694.4219,404.9673,682.4219" style="stroke:#181818;stroke-width:0.5;"/><rect fill="#F1F1F1" height="33.9688" rx="12.5" ry="12.5" style="stroke:#181818;stroke-width:0.5;" width="91.6133" x="359.1606" y="774.8242"/><text fill="#000000" font-family="sans-serif" font-size="12" lengthAdjust="spacing" textLength="71.6133" x="369.1606" y="795.9629">Type Cheep</text><rect fill="#F1F1F1" height="33.9688" rx="12.5" ry="12.5" style="stroke:#181818;stroke-width:0.5;" width="54.8926" x="377.521" y="828.793"/><text fill="#000000" font-family="sans-serif" font-size="12" lengthAdjust="spacing" textLength="34.8926" x="387.521" y="849.9316">Share</text><polygon fill="#F1F1F1" points="388.3679,897.7617,421.5667,897.7617,433.5667,909.7617,421.5667,921.7617,388.3679,921.7617,376.3679,909.7617,388.3679,897.7617" style="stroke:#181818;stroke-width:0.5;"/><text fill="#000000" font-family="sans-serif" font-size="11" lengthAdjust="spacing" textLength="33.1987" x="388.3679" y="913.5698">Valid?</text><text fill="#000000" font-family="sans-serif" font-size="11" lengthAdjust="spacing" textLength="14.9585" x="361.4094" y="907.1675">No</text><text fill="#000000" font-family="sans-serif" font-size="11" lengthAdjust="spacing" textLength="19.2178" x="433.5667" y="907.1675">Yes</text><rect fill="#F1F1F1" height="33.9688" rx="12.5" ry="12.5" style="stroke:#181818;stroke-width:0.5;" width="116.3105" x="281.5469" y="931.7617"/><text fill="#000000" font-family="sans-serif" font-size="12" lengthAdjust="spacing" textLength="96.3105" x="291.5469" y="952.9004">Display warning</text><rect fill="#F1F1F1" height="33.9688" rx="12.5" ry="12.5" style="stroke:#181818;stroke-width:0.5;" width="104.75" x="417.8574" y="931.7617"/><text fill="#000000" font-family="sans-serif" font-size="12" lengthAdjust="spacing" textLength="84.75" x="427.8574" y="952.9004">Submit Cheep</text><polygon fill="#F1F1F1" points="404.9673,971.7305,416.9673,983.7305,404.9673,995.7305,392.9673,983.7305,404.9673,971.7305" style="stroke:#181818;stroke-width:0.5;"/><polygon fill="#F1F1F1" points="371.0112,726.4219,438.9233,726.4219,450.9233,738.4219,438.9233,750.4219,371.0112,750.4219,359.0112,738.4219,371.0112,726.4219" style="stroke:#181818;stroke-width:0.5;"/><text fill="#000000" font-family="sans-serif" font-size="11" lengthAdjust="spacing" textLength="19.2178" x="408.9673" y="760.6323">Yes</text><text fill="#000000" font-family="sans-serif" font-size="11" lengthAdjust="spacing" textLength="67.9121" x="371.0112" y="742.23">Post Cheep?</text><text fill="#000000" font-family="sans-serif" font-size="11" lengthAdjust="spacing" textLength="14.9585" x="450.9233" y="735.8276">No</text><polygon fill="#F1F1F1" points="404.9673,1015.7305,416.9673,1027.7305,404.9673,1039.7305,392.9673,1027.7305,404.9673,1015.7305" style="stroke:#181818;stroke-width:0.5;"/><polygon fill="#F1F1F1" points="254.3967,1045.7305,266.3967,1057.7305,254.3967,1069.7305,242.3967,1057.7305,254.3967,1045.7305" style="stroke:#181818;stroke-width:0.5;"/><rect fill="#F1F1F1" height="33.9688" rx="12.5" ry="12.5" style="stroke:#181818;stroke-width:0.5;" width="128.627" x="190.0833" y="1138.1328"/><text fill="#000000" font-family="sans-serif" font-size="12" lengthAdjust="spacing" textLength="108.627" x="200.0833" y="1159.2715">Display next page</text><polygon fill="#F1F1F1" points="188.8613,1089.7305,319.9321,1089.7305,331.9321,1101.7305,319.9321,1113.7305,188.8613,1113.7305,176.8613,1101.7305,188.8613,1089.7305" style="stroke:#181818;stroke-width:0.5;"/><text fill="#000000" font-family="sans-serif" font-size="11" lengthAdjust="spacing" textLength="19.2178" x="258.3967" y="1123.9409">Yes</text><text fill="#000000" font-family="sans-serif" font-size="11" lengthAdjust="spacing" textLength="131.0708" x="188.8613" y="1105.5386">Want to see next page?</text><text fill="#000000" font-family="sans-serif" font-size="11" lengthAdjust="spacing" textLength="14.9585" x="331.9321" y="1099.1362">No</text><polygon fill="#F1F1F1" points="254.3967,1192.1016,266.3967,1204.1016,254.3967,1216.1016,242.3967,1204.1016,254.3967,1192.1016" style="stroke:#181818;stroke-width:0.5;"/><polygon fill="#F1F1F1" points="232.5498,1236.1016,276.2437,1236.1016,288.2437,1248.1016,276.2437,1260.1016,232.5498,1260.1016,220.5498,1248.1016,232.5498,1236.1016" style="stroke:#181818;stroke-width:0.5;"/><text fill="#000000" font-family="sans-serif" font-size="11" lengthAdjust="spacing" textLength="43.6938" x="232.5498" y="1251.9097">Logout?</text><text fill="#000000" font-family="sans-serif" font-size="11" lengthAdjust="spacing" textLength="19.2178" x="288.2437" y="1245.5073">Yes</text><ellipse cx="329.4614" cy="1248.1016" fill="none" rx="11" ry="11" style="stroke:#222222;stroke-width:1;"/><ellipse cx="329.4614" cy="1248.1016" fill="#222222" rx="6" ry="6" style="stroke:#222222;stroke-width:1;"/><polygon fill="#F1F1F1" points="200.0117,109.1016,308.7817,109.1016,320.7817,121.1016,308.7817,133.1016,200.0117,133.1016,188.0117,121.1016,200.0117,109.1016" style="stroke:#181818;stroke-width:0.5;"/><text fill="#000000" font-family="sans-serif" font-size="11" lengthAdjust="spacing" textLength="19.2178" x="258.3967" y="143.312">Yes</text><text fill="#000000" font-family="sans-serif" font-size="11" lengthAdjust="spacing" textLength="108.77" x="200.0117" y="124.9097">Continue browsing?</text><ellipse cx="24" cy="168.1016" fill="none" rx="11" ry="11" style="stroke:#222222;stroke-width:1;"/><ellipse cx="24" cy="168.1016" fill="#222222" rx="6" ry="6" style="stroke:#222222;stroke-width:1;"/><line style="stroke:#181818;stroke-width:1;" x1="254.3967" x2="254.3967" y1="32.5664" y2="55.1328"/><polygon fill="#181818" points="250.3967,45.1328,254.3967,55.1328,258.3967,45.1328,254.3967,49.1328" style="stroke:#181818;stroke-width:1;"/><line style="stroke:#181818;stroke-width:1;" x1="103.8262" x2="103.8262" y1="334.6797" y2="369.6797"/><polygon fill="#181818" points="99.8262,359.6797,103.8262,369.6797,107.8262,359.6797,103.8262,363.6797" style="stroke:#181818;stroke-width:1;"/><line style="stroke:#181818;stroke-width:1;" x1="103.8262" x2="103.8262" y1="276.3086" y2="300.7109"/><polygon fill="#181818" points="99.8262,290.7109,103.8262,300.7109,107.8262,290.7109,103.8262,294.7109" style="stroke:#181818;stroke-width:1;"/><line style="stroke:#181818;stroke-width:1;" x1="150.561" x2="172.6523" y1="264.3086" y2="264.3086"/><polygon fill="#181818" points="168.6523,333.1953,172.6523,343.1953,176.6523,333.1953,172.6523,337.1953" style="stroke:#181818;stroke-width:1;"/><line style="stroke:#181818;stroke-width:1;" x1="172.6523" x2="172.6523" y1="264.3086" y2="422.082"/><line style="stroke:#181818;stroke-width:1;" x1="172.6523" x2="103.8262" y1="422.082" y2="422.082"/><line style="stroke:#181818;stroke-width:1;" x1="103.8262" x2="103.8262" y1="422.082" y2="446.4844"/><polygon fill="#181818" points="99.8262,436.4844,103.8262,446.4844,107.8262,436.4844,103.8262,440.4844" style="stroke:#181818;stroke-width:1;"/><line style="stroke:#181818;stroke-width:1;" x1="103.8262" x2="103.8262" y1="227.9063" y2="252.3086"/><polygon fill="#181818" points="99.8262,242.3086,103.8262,252.3086,107.8262,242.3086,103.8262,246.3086" style="stroke:#181818;stroke-width:1;"/><line style="stroke:#181818;stroke-width:1;" x1="156.8855" x2="194.6523" y1="215.9063" y2="215.9063"/><polygon fill="#181818" points="190.6523,327.1953,194.6523,337.1953,198.6523,327.1953,194.6523,331.1953" style="stroke:#181818;stroke-width:1;"/><line style="stroke:#181818;stroke-width:1;" x1="194.6523" x2="194.6523" y1="215.9063" y2="458.4844"/><line style="stroke:#181818;stroke-width:1;" x1="194.6523" x2="115.8262" y1="458.4844" y2="458.4844"/><polygon fill="#181818" points="125.8262,454.4844,115.8262,458.4844,125.8262,462.4844,121.8262,458.4844" style="stroke:#181818;stroke-width:1;"/><line style="stroke:#181818;stroke-width:1;" x1="494.915" x2="494.915" y1="379.2773" y2="403.6797"/><polygon fill="#181818" points="490.915,393.6797,494.915,403.6797,498.915,393.6797,494.915,397.6797" style="stroke:#181818;stroke-width:1;"/><line style="stroke:#181818;stroke-width:1;" x1="540.1675" x2="562.2793" y1="367.2773" y2="367.2773"/><polygon fill="#181818" points="558.2793,410.6641,562.2793,420.6641,566.2793,410.6641,562.2793,414.6641" style="stroke:#181818;stroke-width:1;"/><line style="stroke:#181818;stroke-width:1;" x1="562.2793" x2="562.2793" y1="367.2773" y2="474.0508"/><line style="stroke:#181818;stroke-width:1;" x1="562.2793" x2="506.915" y1="474.0508" y2="474.0508"/><polygon fill="#181818" points="516.915,470.0508,506.915,474.0508,516.915,478.0508,512.915,474.0508" style="stroke:#181818;stroke-width:1;"/><line style="stroke:#181818;stroke-width:1;" x1="494.915" x2="494.915" y1="437.6484" y2="462.0508"/><polygon fill="#181818" points="490.915,452.0508,494.915,462.0508,498.915,452.0508,494.915,456.0508" style="stroke:#181818;stroke-width:1;"/><line style="stroke:#181818;stroke-width:1;" x1="494.915" x2="494.915" y1="330.875" y2="355.2773"/><polygon fill="#181818" points="490.915,345.2773,494.915,355.2773,498.915,345.2773,494.915,349.2773" style="stroke:#181818;stroke-width:1;"/><line style="stroke:#181818;stroke-width:1;" x1="557.97" x2="584.2793" y1="318.875" y2="318.875"/><polygon fill="#181818" points="580.2793,410.6641,584.2793,420.6641,588.2793,410.6641,584.2793,414.6641" style="stroke:#181818;stroke-width:1;"/><line style="stroke:#181818;stroke-width:1;" x1="584.2793" x2="584.2793" y1="318.875" y2="518.0508"/><line style="stroke:#181818;stroke-width:1;" x1="584.2793" x2="506.915" y1="518.0508" y2="518.0508"/><polygon fill="#181818" points="516.915,514.0508,506.915,518.0508,516.915,522.0508,512.915,518.0508" style="stroke:#181818;stroke-width:1;"/><line style="stroke:#181818;stroke-width:1;" x1="494.915" x2="494.915" y1="486.0508" y2="506.0508"/><polygon fill="#181818" points="490.915,496.0508,494.915,506.0508,498.915,496.0508,494.915,500.0508" style="stroke:#181818;stroke-width:1;"/><line style="stroke:#181818;stroke-width:1;" x1="494.915" x2="494.915" y1="271.875" y2="306.875"/><polygon fill="#181818" points="490.915,296.875,494.915,306.875,498.915,296.875,494.915,300.875" style="stroke:#181818;stroke-width:1;"/><line style="stroke:#181818;stroke-width:1;" x1="331.8201" x2="315.0195" y1="215.9063" y2="215.9063"/><line style="stroke:#181818;stroke-width:1;" x1="315.0195" x2="315.0195" y1="215.9063" y2="237.9063"/><polygon fill="#181818" points="311.0195,227.9063,315.0195,237.9063,319.0195,227.9063,315.0195,231.9063" style="stroke:#181818;stroke-width:1;"/><line style="stroke:#181818;stroke-width:1;" x1="478.1145" x2="494.915" y1="215.9063" y2="215.9063"/><line style="stroke:#181818;stroke-width:1;" x1="494.915" x2="494.915" y1="215.9063" y2="237.9063"/><polygon fill="#181818" points="490.915,227.9063,494.915,237.9063,498.915,227.9063,494.915,231.9063" style="stroke:#181818;stroke-width:1;"/><line style="stroke:#181818;stroke-width:1;" x1="315.0195" x2="315.0195" y1="271.875" y2="548.0508"/><line style="stroke:#181818;stroke-width:1;" x1="315.0195" x2="392.9673" y1="548.0508" y2="548.0508"/><polygon fill="#181818" points="382.9673,544.0508,392.9673,548.0508,382.9673,552.0508,386.9673,548.0508" style="stroke:#181818;stroke-width:1;"/><line style="stroke:#181818;stroke-width:1;" x1="494.915" x2="494.915" y1="530.0508" y2="548.0508"/><line style="stroke:#181818;stroke-width:1;" x1="494.915" x2="416.9673" y1="548.0508" y2="548.0508"/><polygon fill="#181818" points="426.9673,544.0508,416.9673,548.0508,426.9673,552.0508,422.9673,548.0508" style="stroke:#181818;stroke-width:1;"/><line style="stroke:#181818;stroke-width:1;" x1="404.9673" x2="404.9673" y1="604.0508" y2="628.4531"/><polygon fill="#181818" points="400.9673,618.4531,404.9673,628.4531,408.9673,618.4531,404.9673,622.4531" style="stroke:#181818;stroke-width:1;"/><line style="stroke:#181818;stroke-width:1;" x1="489.8745" x2="501.8745" y1="592.0508" y2="592.0508"/><polygon fill="#181818" points="497.8745,635.4375,501.8745,645.4375,505.8745,635.4375,501.8745,639.4375" style="stroke:#181818;stroke-width:1;"/><line style="stroke:#181818;stroke-width:1;" x1="501.8745" x2="501.8745" y1="592.0508" y2="694.4219"/><line style="stroke:#181818;stroke-width:1;" x1="501.8745" x2="416.9673" y1="694.4219" y2="694.4219"/><polygon fill="#181818" points="426.9673,690.4219,416.9673,694.4219,426.9673,698.4219,422.9673,694.4219" style="stroke:#181818;stroke-width:1;"/><line style="stroke:#181818;stroke-width:1;" x1="404.9673" x2="404.9673" y1="662.4219" y2="682.4219"/><polygon fill="#181818" points="400.9673,672.4219,404.9673,682.4219,408.9673,672.4219,404.9673,676.4219" style="stroke:#181818;stroke-width:1;"/><line style="stroke:#181818;stroke-width:1;" x1="404.9673" x2="404.9673" y1="560.0508" y2="580.0508"/><polygon fill="#181818" points="400.9673,570.0508,404.9673,580.0508,408.9673,570.0508,404.9673,574.0508" style="stroke:#181818;stroke-width:1;"/><line style="stroke:#181818;stroke-width:1;" x1="404.9673" x2="404.9673" y1="808.793" y2="828.793"/><polygon fill="#181818" points="400.9673,818.793,404.9673,828.793,408.9673,818.793,404.9673,822.793" style="stroke:#181818;stroke-width:1;"/><line style="stroke:#181818;stroke-width:1;" x1="376.3679" x2="339.7021" y1="909.7617" y2="909.7617"/><line style="stroke:#181818;stroke-width:1;" x1="339.7021" x2="339.7021" y1="909.7617" y2="931.7617"/><polygon fill="#181818" points="335.7021,921.7617,339.7021,931.7617,343.7021,921.7617,339.7021,925.7617" style="stroke:#181818;stroke-width:1;"/><line style="stroke:#181818;stroke-width:1;" x1="433.5667" x2="470.2324" y1="909.7617" y2="909.7617"/><line style="stroke:#181818;stroke-width:1;" x1="470.2324" x2="470.2324" y1="909.7617" y2="931.7617"/><polygon fill="#181818" points="466.2324,921.7617,470.2324,931.7617,474.2324,921.7617,470.2324,925.7617" style="stroke:#181818;stroke-width:1;"/><line style="stroke:#181818;stroke-width:1;" x1="339.7021" x2="339.7021" y1="965.7305" y2="983.7305"/><line style="stroke:#181818;stroke-width:1;" x1="339.7021" x2="392.9673" y1="983.7305" y2="983.7305"/><polygon fill="#181818" points="382.9673,979.7305,392.9673,983.7305,382.9673,987.7305,386.9673,983.7305" style="stroke:#181818;stroke-width:1;"/><line style="stroke:#181818;stroke-width:1;" x1="470.2324" x2="470.2324" y1="965.7305" y2="983.7305"/><line style="stroke:#181818;stroke-width:1;" x1="470.2324" x2="416.9673" y1="983.7305" y2="983.7305"/><polygon fill="#181818" points="426.9673,979.7305,416.9673,983.7305,426.9673,987.7305,422.9673,983.7305" style="stroke:#181818;stroke-width:1;"/><line style="stroke:#181818;stroke-width:1;" x1="404.9673" x2="404.9673" y1="862.7617" y2="897.7617"/><polygon fill="#181818" points="400.9673,887.7617,404.9673,897.7617,408.9673,887.7617,404.9673,891.7617" style="stroke:#181818;stroke-width:1;"/><line style="stroke:#181818;stroke-width:1;" x1="404.9673" x2="404.9673" y1="750.4219" y2="774.8242"/><polygon fill="#181818" points="400.9673,764.8242,404.9673,774.8242,408.9673,764.8242,404.9673,768.8242" style="stroke:#181818;stroke-width:1;"/><line style="stroke:#181818;stroke-width:1;" x1="450.9233" x2="542.6074" y1="738.4219" y2="738.4219"/><polygon fill="#181818" points="538.6074,867.7773,542.6074,877.7773,546.6074,867.7773,542.6074,871.7773" style="stroke:#181818;stroke-width:1;"/><line style="stroke:#181818;stroke-width:1;" x1="542.6074" x2="542.6074" y1="738.4219" y2="1027.7305"/><line style="stroke:#181818;stroke-width:1;" x1="542.6074" x2="416.9673" y1="1027.7305" y2="1027.7305"/><polygon fill="#181818" points="426.9673,1023.7305,416.9673,1027.7305,426.9673,1031.7305,422.9673,1027.7305" style="stroke:#181818;stroke-width:1;"/><line style="stroke:#181818;stroke-width:1;" x1="404.9673" x2="404.9673" y1="995.7305" y2="1015.7305"/><polygon fill="#181818" points="400.9673,1005.7305,404.9673,1015.7305,408.9673,1005.7305,404.9673,1009.7305" style="stroke:#181818;stroke-width:1;"/><line style="stroke:#181818;stroke-width:1;" x1="404.9673" x2="404.9673" y1="706.4219" y2="726.4219"/><polygon fill="#181818" points="400.9673,716.4219,404.9673,726.4219,408.9673,716.4219,404.9673,720.4219" style="stroke:#181818;stroke-width:1;"/><line style="stroke:#181818;stroke-width:1;" x1="171.7749" x2="103.8262" y1="181.9063" y2="181.9063"/><line style="stroke:#181818;stroke-width:1;" x1="103.8262" x2="103.8262" y1="181.9063" y2="203.9063"/><polygon fill="#181818" points="99.8262,193.9063,103.8262,203.9063,107.8262,193.9063,103.8262,197.9063" style="stroke:#181818;stroke-width:1;"/><line style="stroke:#181818;stroke-width:1;" x1="337.0186" x2="404.9673" y1="181.9063" y2="181.9063"/><line style="stroke:#181818;stroke-width:1;" x1="404.9673" x2="404.9673" y1="181.9063" y2="203.9063"/><polygon fill="#181818" points="400.9673,193.9063,404.9673,203.9063,408.9673,193.9063,404.9673,197.9063" style="stroke:#181818;stroke-width:1;"/><line style="stroke:#181818;stroke-width:1;" x1="103.8262" x2="103.8262" y1="470.4844" y2="1057.7305"/><line style="stroke:#181818;stroke-width:1;" x1="103.8262" x2="242.3967" y1="1057.7305" y2="1057.7305"/><polygon fill="#181818" points="232.3967,1053.7305,242.3967,1057.7305,232.3967,1061.7305,236.3967,1057.7305" style="stroke:#181818;stroke-width:1;"/><line style="stroke:#181818;stroke-width:1;" x1="404.9673" x2="404.9673" y1="1039.7305" y2="1057.7305"/><line style="stroke:#181818;stroke-width:1;" x1="404.9673" x2="266.3967" y1="1057.7305" y2="1057.7305"/><polygon fill="#181818" points="276.3967,1053.7305,266.3967,1057.7305,276.3967,1061.7305,272.3967,1057.7305" style="stroke:#181818;stroke-width:1;"/><line style="stroke:#181818;stroke-width:1;" x1="254.3967" x2="254.3967" y1="1113.7305" y2="1138.1328"/><polygon fill="#181818" points="250.3967,1128.1328,254.3967,1138.1328,258.3967,1128.1328,254.3967,1132.1328" style="stroke:#181818;stroke-width:1;"/><line style="stroke:#181818;stroke-width:1;" x1="331.9321" x2="343.9321" y1="1101.7305" y2="1101.7305"/><polygon fill="#181818" points="339.9321,1145.1172,343.9321,1155.1172,347.9321,1145.1172,343.9321,1149.1172" style="stroke:#181818;stroke-width:1;"/><line style="stroke:#181818;stroke-width:1;" x1="343.9321" x2="343.9321" y1="1101.7305" y2="1204.1016"/><line style="stroke:#181818;stroke-width:1;" x1="343.9321" x2="266.3967" y1="1204.1016" y2="1204.1016"/><polygon fill="#181818" points="276.3967,1200.1016,266.3967,1204.1016,276.3967,1208.1016,272.3967,1204.1016" style="stroke:#181818;stroke-width:1;"/><line style="stroke:#181818;stroke-width:1;" x1="254.3967" x2="254.3967" y1="1172.1016" y2="1192.1016"/><polygon fill="#181818" points="250.3967,1182.1016,254.3967,1192.1016,258.3967,1182.1016,254.3967,1186.1016" style="stroke:#181818;stroke-width:1;"/><line style="stroke:#181818;stroke-width:1;" x1="254.3967" x2="254.3967" y1="1069.7305" y2="1089.7305"/><polygon fill="#181818" points="250.3967,1079.7305,254.3967,1089.7305,258.3967,1079.7305,254.3967,1083.7305" style="stroke:#181818;stroke-width:1;"/><line style="stroke:#181818;stroke-width:1;" x1="254.3967" x2="254.3967" y1="1260.1016" y2="1270.1016"/><line style="stroke:#181818;stroke-width:1;" x1="254.3967" x2="602.2793" y1="1270.1016" y2="1270.1016"/><polygon fill="#181818" points="598.2793,738.1016,602.2793,728.1016,606.2793,738.1016,602.2793,734.1016" style="stroke:#181818;stroke-width:1;"/><line style="stroke:#181818;stroke-width:1;" x1="602.2793" x2="602.2793" y1="121.1016" y2="1270.1016"/><line style="stroke:#181818;stroke-width:1;" x1="602.2793" x2="320.7817" y1="121.1016" y2="121.1016"/><polygon fill="#181818" points="330.7817,117.1016,320.7817,121.1016,330.7817,125.1016,326.7817,121.1016" style="stroke:#181818;stroke-width:1;"/><line style="stroke:#181818;stroke-width:1;" x1="288.2437" x2="318.4614" y1="1248.1016" y2="1248.1016"/><polygon fill="#181818" points="308.4614,1244.1016,318.4614,1248.1016,308.4614,1252.1016,312.4614,1248.1016" style="stroke:#181818;stroke-width:1;"/><line style="stroke:#181818;stroke-width:1;" x1="254.3967" x2="254.3967" y1="1216.1016" y2="1236.1016"/><polygon fill="#181818" points="250.3967,1226.1016,254.3967,1236.1016,258.3967,1226.1016,254.3967,1230.1016" style="stroke:#181818;stroke-width:1;"/><line style="stroke:#181818;stroke-width:1;" x1="254.3967" x2="254.3967" y1="133.1016" y2="169.9063"/><polygon fill="#181818" points="250.3967,159.9063,254.3967,169.9063,258.3967,159.9063,254.3967,163.9063" style="stroke:#181818;stroke-width:1;"/><line style="stroke:#181818;stroke-width:1;" x1="188.0117" x2="24" y1="121.1016" y2="121.1016"/><line style="stroke:#181818;stroke-width:1;" x1="24" x2="24" y1="121.1016" y2="157.1016"/><polygon fill="#181818" points="20,147.1016,24,157.1016,28,147.1016,24,151.1016" style="stroke:#181818;stroke-width:1;"/><line style="stroke:#181818;stroke-width:1;" x1="254.3967" x2="254.3967" y1="89.1016" y2="109.1016"/><polygon fill="#181818" points="250.3967,99.1016,254.3967,109.1016,258.3967,99.1016,254.3967,103.1016" style="stroke:#181818;stroke-width:1;"/><!--SRC=[bLHDRy8m3BtdLtYtSjgT7X038KtQbyG0xHXMbreBSPMawzYlNrAsRgKVZ1og9BMVd_tiM2UD4veT2l1hMhYC3NrY0YkBHg1EgdzYF2URAtc0tD2xT0YEzgX8Oon4cP52Y6Qi7Ua2OMkujAHtan6GXUW5xKXKw9H2j2OiGK92QOe6jQk1lBNBK4FqmAFAkk4ntNBXu1wxZC92PV4xrD_hu3z7XPvmuVEPNEWUrdYcwFKD5cns61XSnIqJwpXlmccVdsYVEi84Xe_QL-Iqi3NN5gjVBOgjv_P7YcOwfqaEQ7XQiriBvE30XHdMvqpj0jGgJqAi6-9UX3Ce5VUD8OyYGVjcy5Xj4Per7rBXXzc2bUBoUgNJQWEMzyWzYVRGgvkZWHGF17rYws2M8UONnNa-v7XqQsO-NcRIT0YubegIteBNdL1Ae_sanlyHTBmijdjoNInw-xtQrRE_aM7U6IoYr_73GIvtxNAVXA-vrXvn5_OTx_mBqJqqzNmUVVotUh94kFy2]--></g></svg>