<svg xmlns="http://www.w3.org/2000/svg" xmlns:xlink="http://www.w3.org/1999/xlink" contentStyleType="text/css" height="741px" preserveAspectRatio="none" style="width:448px;height:741px;background:#FFFFFF;" version="1.1" viewBox="0 0 448 741" width="448px" zoomAndPan="magnify"><defs/><g><path d="M45,10 L45,35.1328 A0,0 0 0 0 45,35.1328 L199.8975,35.1328 A0,0 0 0 0 199.8975,35.1328 L199.8975,28 L219.8975,22.5664 L199.8975,20 L199.8975,20 L189.8975,10 L45,10 A0,0 0 0 0 45,10 " fill="#FEFFDD" style="stroke:#181818;stroke-width:0.5;"/><path d="M189.8975,10 L189.8975,20 L199.8975,20 L189.8975,10 " fill="#FEFFDD" style="stroke:#181818;stroke-width:0.5;"/><text fill="#000000" font-family="sans-serif" font-size="13" lengthAdjust="spacing" textLength="133.8975" x="51" y="27.0669">Non-authorized User</text><ellipse cx="229.8975" cy="22.5664" fill="#222222" rx="10" ry="10" style="stroke:#222222;stroke-width:1;"/><rect fill="#F1F1F1" height="33.9688" rx="12.5" ry="12.5" style="stroke:#181818;stroke-width:0.5;" width="156.7344" x="151.5303" y="55.1328"/><text fill="#000000" font-family="sans-serif" font-size="12" lengthAdjust="spacing" textLength="136.7344" x="161.5303" y="76.2715">Display public timeline</text><polygon fill="#F1F1F1" points="176.7666,218.3086,283.0283,218.3086,295.0283,230.3086,283.0283,242.3086,176.7666,242.3086,164.7666,230.3086,176.7666,218.3086" style="stroke:#181818;stroke-width:0.5;"/><text fill="#000000" font-family="sans-serif" font-size="11" lengthAdjust="spacing" textLength="106.2617" x="176.7666" y="234.1167">On public timeline?</text><text fill="#000000" font-family="sans-serif" font-size="11" lengthAdjust="spacing" textLength="19.2178" x="145.5488" y="227.7144">Yes</text><text fill="#000000" font-family="sans-serif" font-size="11" lengthAdjust="spacing" textLength="14.9585" x="295.0283" y="227.7144">No</text><rect fill="#F1F1F1" height="33.9688" rx="12.5" ry="12.5" style="stroke:#181818;stroke-width:0.5;" width="163.0566" x="58.4214" y="252.3086"/><text fill="#000000" font-family="sans-serif" font-size="12" lengthAdjust="spacing" textLength="143.0566" x="68.4214" y="273.4473">Display private timeline</text><rect fill="#F1F1F1" height="33.9688" rx="12.5" ry="12.5" style="stroke:#181818;stroke-width:0.5;" width="156.7344" x="241.478" y="252.3086"/><text fill="#000000" font-family="sans-serif" font-size="12" lengthAdjust="spacing" textLength="136.7344" x="251.478" y="273.4473">Display public timeline</text><polygon fill="#F1F1F1" points="229.8975,292.2773,241.8975,304.2773,229.8975,316.2773,217.8975,304.2773,229.8975,292.2773" style="stroke:#181818;stroke-width:0.5;"/><polygon fill="#F1F1F1" points="159.2756,169.9063,300.5193,169.9063,312.5193,181.9063,300.5193,193.9063,159.2756,193.9063,147.2756,181.9063,159.2756,169.9063" style="stroke:#181818;stroke-width:0.5;"/><text fill="#000000" font-family="sans-serif" font-size="11" lengthAdjust="spacing" textLength="19.2178" x="233.8975" y="204.1167">Yes</text><text fill="#000000" font-family="sans-serif" font-size="11" lengthAdjust="spacing" textLength="141.2437" x="159.2756" y="185.7144">View a different timeline?</text><text fill="#000000" font-family="sans-serif" font-size="11" lengthAdjust="spacing" textLength="14.9585" x="312.5193" y="179.312">No</text><polygon fill="#F1F1F1" points="229.8975,336.2773,241.8975,348.2773,229.8975,360.2773,217.8975,348.2773,229.8975,336.2773" style="stroke:#181818;stroke-width:0.5;"/><rect fill="#F1F1F1" height="33.9688" rx="12.5" ry="12.5" style="stroke:#181818;stroke-width:0.5;" width="128.627" x="165.584" y="428.6797"/><text fill="#000000" font-family="sans-serif" font-size="12" lengthAdjust="spacing" textLength="108.627" x="175.584" y="449.8184">Display next page</text><polygon fill="#F1F1F1" points="164.3621,380.2773,295.4329,380.2773,307.4329,392.2773,295.4329,404.2773,164.3621,404.2773,152.3621,392.2773,164.3621,380.2773" style="stroke:#181818;stroke-width:0.5;"/><text fill="#000000" font-family="sans-serif" font-size="11" lengthAdjust="spacing" textLength="19.2178" x="233.8975" y="414.4878">Yes</text><text fill="#000000" font-family="sans-serif" font-size="11" lengthAdjust="spacing" textLength="131.0708" x="164.3621" y="396.0854">Want to see next page?</text><polygon fill="#F1F1F1" points="229.8975,482.6484,241.8975,494.6484,229.8975,506.6484,217.8975,494.6484,229.8975,482.6484" style="stroke:#181818;stroke-width:0.5;"/><polygon fill="#F1F1F1" points="175.9717,575.0508,283.8232,575.0508,295.8232,587.0508,283.8232,599.0508,175.9717,599.0508,163.9717,587.0508,175.9717,575.0508" style="stroke:#181818;stroke-width:0.5;"/><text fill="#000000" font-family="sans-serif" font-size="11" lengthAdjust="spacing" textLength="107.8516" x="175.9717" y="590.8589">Already registered?</text><text fill="#000000" font-family="sans-serif" font-size="11" lengthAdjust="spacing" textLength="19.2178" x="144.7539" y="584.4565">Yes</text><text fill="#000000" font-family="sans-serif" font-size="11" lengthAdjust="spacing" textLength="14.9585" x="295.8232" y="584.4565">No</text><rect fill="#F1F1F1" height="33.9688" rx="12.5" ry="12.5" style="stroke:#181818;stroke-width:0.5;" width="52.584" x="127.6797" y="609.0508"/><text fill="#000000" font-family="sans-serif" font-size="12" lengthAdjust="spacing" textLength="32.584" x="137.6797" y="630.1895">Login</text><ellipse cx="153.9717" cy="674.0195" fill="none" rx="11" ry="11" style="stroke:#222222;stroke-width:1;"/><ellipse cx="153.9717" cy="674.0195" fill="#222222" rx="6" ry="6" style="stroke:#222222;stroke-width:1;"/><rect fill="#F1F1F1" height="33.9688" rx="12.5" ry="12.5" style="stroke:#181818;stroke-width:0.5;" width="69.9453" x="270.8506" y="609.0508"/><text fill="#000000" font-family="sans-serif" font-size="12" lengthAdjust="spacing" textLength="49.9453" x="280.8506" y="630.1895">Register</text><ellipse cx="305.8232" cy="674.0195" fill="none" rx="11" ry="11" style="stroke:#222222;stroke-width:1;"/><ellipse cx="305.8232" cy="674.0195" fill="#222222" rx="6" ry="6" style="stroke:#222222;stroke-width:1;"/><polygon fill="#F1F1F1" points="180.0295,526.6484,279.7654,526.6484,291.7654,538.6484,279.7654,550.6484,180.0295,550.6484,168.0295,538.6484,180.0295,526.6484" style="stroke:#181818;stroke-width:0.5;"/><text fill="#000000" font-family="sans-serif" font-size="11" lengthAdjust="spacing" textLength="19.2178" x="233.8975" y="560.8589">Yes</text><text fill="#000000" font-family="sans-serif" font-size="11" lengthAdjust="spacing" textLength="99.7358" x="180.0295" y="542.4565">Register or Login?</text><polygon fill="#F1F1F1" points="175.5125,109.1016,284.2825,109.1016,296.2825,121.1016,284.2825,133.1016,175.5125,133.1016,163.5125,121.1016,175.5125,109.1016" style="stroke:#181818;stroke-width:0.5;"/><text fill="#000000" font-family="sans-serif" font-size="11" lengthAdjust="spacing" textLength="19.2178" x="233.8975" y="143.312">Yes</text><text fill="#000000" font-family="sans-serif" font-size="11" lengthAdjust="spacing" textLength="108.77" x="175.5125" y="124.9097">Continue browsing?</text><ellipse cx="24" cy="168.1016" fill="none" rx="11" ry="11" style="stroke:#222222;stroke-width:1;"/><ellipse cx="24" cy="168.1016" fill="#222222" rx="6" ry="6" style="stroke:#222222;stroke-width:1;"/><line style="stroke:#181818;stroke-width:1;" x1="229.8975" x2="229.8975" y1="32.5664" y2="55.1328"/><polygon fill="#181818" points="225.8975,45.1328,229.8975,55.1328,233.8975,45.1328,229.8975,49.1328" style="stroke:#181818;stroke-width:1;"/><line style="stroke:#181818;stroke-width:1;" x1="164.7666" x2="139.9497" y1="230.3086" y2="230.3086"/><line style="stroke:#181818;stroke-width:1;" x1="139.9497" x2="139.9497" y1="230.3086" y2="252.3086"/><polygon fill="#181818" points="135.9497,242.3086,139.9497,252.3086,143.9497,242.3086,139.9497,246.3086" style="stroke:#181818;stroke-width:1;"/><line style="stroke:#181818;stroke-width:1;" x1="295.0283" x2="319.8452" y1="230.3086" y2="230.3086"/><line style="stroke:#181818;stroke-width:1;" x1="319.8452" x2="319.8452" y1="230.3086" y2="252.3086"/><polygon fill="#181818" points="315.8452,242.3086,319.8452,252.3086,323.8452,242.3086,319.8452,246.3086" style="stroke:#181818;stroke-width:1;"/><line style="stroke:#181818;stroke-width:1;" x1="139.9497" x2="139.9497" y1="286.2773" y2="304.2773"/><line style="stroke:#181818;stroke-width:1;" x1="139.9497" x2="217.8975" y1="304.2773" y2="304.2773"/><polygon fill="#181818" points="207.8975,300.2773,217.8975,304.2773,207.8975,308.2773,211.8975,304.2773" style="stroke:#181818;stroke-width:1;"/><line style="stroke:#181818;stroke-width:1;" x1="319.8452" x2="319.8452" y1="286.2773" y2="304.2773"/><line style="stroke:#181818;stroke-width:1;" x1="319.8452" x2="241.8975" y1="304.2773" y2="304.2773"/><polygon fill="#181818" points="251.8975,300.2773,241.8975,304.2773,251.8975,308.2773,247.8975,304.2773" style="stroke:#181818;stroke-width:1;"/><line style="stroke:#181818;stroke-width:1;" x1="229.8975" x2="229.8975" y1="193.9063" y2="218.3086"/><polygon fill="#181818" points="225.8975,208.3086,229.8975,218.3086,233.8975,208.3086,229.8975,212.3086" style="stroke:#181818;stroke-width:1;"/><line style="stroke:#181818;stroke-width:1;" x1="312.5193" x2="412.2124" y1="181.9063" y2="181.9063"/><polygon fill="#181818" points="408.2124,257.293,412.2124,267.293,416.2124,257.293,412.2124,261.293" style="stroke:#181818;stroke-width:1;"/><line style="stroke:#181818;stroke-width:1;" x1="412.2124" x2="412.2124" y1="181.9063" y2="348.2773"/><line style="stroke:#181818;stroke-width:1;" x1="412.2124" x2="241.8975" y1="348.2773" y2="348.2773"/><polygon fill="#181818" points="251.8975,344.2773,241.8975,348.2773,251.8975,352.2773,247.8975,348.2773" style="stroke:#181818;stroke-width:1;"/><line style="stroke:#181818;stroke-width:1;" x1="229.8975" x2="229.8975" y1="316.2773" y2="336.2773"/><polygon fill="#181818" points="225.8975,326.2773,229.8975,336.2773,233.8975,326.2773,229.8975,330.2773" style="stroke:#181818;stroke-width:1;"/><line style="stroke:#181818;stroke-width:1;" x1="229.8975" x2="229.8975" y1="404.2773" y2="428.6797"/><polygon fill="#181818" points="225.8975,418.6797,229.8975,428.6797,233.8975,418.6797,229.8975,422.6797" style="stroke:#181818;stroke-width:1;"/><line style="stroke:#181818;stroke-width:1;" x1="307.4329" x2="319.4329" y1="392.2773" y2="392.2773"/><polygon fill="#181818" points="315.4329,435.6641,319.4329,445.6641,323.4329,435.6641,319.4329,439.6641" style="stroke:#181818;stroke-width:1;"/><line style="stroke:#181818;stroke-width:1;" x1="319.4329" x2="319.4329" y1="392.2773" y2="494.6484"/><line style="stroke:#181818;stroke-width:1;" x1="319.4329" x2="241.8975" y1="494.6484" y2="494.6484"/><polygon fill="#181818" points="251.8975,490.6484,241.8975,494.6484,251.8975,498.6484,247.8975,494.6484" style="stroke:#181818;stroke-width:1;"/><line style="stroke:#181818;stroke-width:1;" x1="229.8975" x2="229.8975" y1="462.6484" y2="482.6484"/><polygon fill="#181818" points="225.8975,472.6484,229.8975,482.6484,233.8975,472.6484,229.8975,476.6484" style="stroke:#181818;stroke-width:1;"/><line style="stroke:#181818;stroke-width:1;" x1="229.8975" x2="229.8975" y1="360.2773" y2="380.2773"/><polygon fill="#181818" points="225.8975,370.2773,229.8975,380.2773,233.8975,370.2773,229.8975,374.2773" style="stroke:#181818;stroke-width:1;"/><line style="stroke:#181818;stroke-width:1;" x1="153.9717" x2="153.9717" y1="643.0195" y2="663.0195"/><polygon fill="#181818" points="149.9717,653.0195,153.9717,663.0195,157.9717,653.0195,153.9717,657.0195" style="stroke:#181818;stroke-width:1;"/><line style="stroke:#181818;stroke-width:1;" x1="305.8232" x2="305.8232" y1="643.0195" y2="663.0195"/><polygon fill="#181818" points="301.8232,653.0195,305.8232,663.0195,309.8232,653.0195,305.8232,657.0195" style="stroke:#181818;stroke-width:1;"/><line style="stroke:#181818;stroke-width:1;" x1="163.9717" x2="153.9717" y1="587.0508" y2="587.0508"/><line style="stroke:#181818;stroke-width:1;" x1="153.9717" x2="153.9717" y1="587.0508" y2="609.0508"/><polygon fill="#181818" points="149.9717,599.0508,153.9717,609.0508,157.9717,599.0508,153.9717,603.0508" style="stroke:#181818;stroke-width:1;"/><line style="stroke:#181818;stroke-width:1;" x1="295.8232" x2="305.8232" y1="587.0508" y2="587.0508"/><line style="stroke:#181818;stroke-width:1;" x1="305.8232" x2="305.8232" y1="587.0508" y2="609.0508"/><polygon fill="#181818" points="301.8232,599.0508,305.8232,609.0508,309.8232,599.0508,305.8232,603.0508" style="stroke:#181818;stroke-width:1;"/><line style="stroke:#181818;stroke-width:1;" x1="229.8975" x2="229.8975" y1="550.6484" y2="575.0508"/><polygon fill="#181818" points="225.8975,565.0508,229.8975,575.0508,233.8975,565.0508,229.8975,569.0508" style="stroke:#181818;stroke-width:1;"/><line style="stroke:#181818;stroke-width:1;" x1="291.7654" x2="436.2124" y1="538.6484" y2="538.6484"/><line style="stroke:#181818;stroke-width:1;" x1="436.2124" x2="436.2124" y1="121.1016" y2="538.6484"/><line style="stroke:#181818;stroke-width:1;" x1="436.2124" x2="296.2825" y1="121.1016" y2="121.1016"/><polygon fill="#181818" points="306.2825,117.1016,296.2825,121.1016,306.2825,125.1016,302.2825,121.1016" style="stroke:#181818;stroke-width:1;"/><line style="stroke:#181818;stroke-width:1;" x1="229.8975" x2="229.8975" y1="506.6484" y2="526.6484"/><polygon fill="#181818" points="225.8975,516.6484,229.8975,526.6484,233.8975,516.6484,229.8975,520.6484" style="stroke:#181818;stroke-width:1;"/><line style="stroke:#181818;stroke-width:1;" x1="229.8975" x2="229.8975" y1="133.1016" y2="169.9063"/><polygon fill="#181818" points="225.8975,159.9063,229.8975,169.9063,233.8975,159.9063,229.8975,163.9063" style="stroke:#181818;stroke-width:1;"/><line style="stroke:#181818;stroke-width:1;" x1="163.5125" x2="24" y1="121.1016" y2="121.1016"/><line style="stroke:#181818;stroke-width:1;" x1="24" x2="24" y1="121.1016" y2="157.1016"/><polygon fill="#181818" points="20,147.1016,24,157.1016,28,147.1016,24,151.1016" style="stroke:#181818;stroke-width:1;"/><line style="stroke:#181818;stroke-width:1;" x1="229.8975" x2="229.8975" y1="89.1016" y2="109.1016"/><polygon fill="#181818" points="225.8975,99.1016,229.8975,109.1016,233.8975,99.1016,229.8975,103.1016" style="stroke:#181818;stroke-width:1;"/><!--SRC=[XLAzJiCm4Dxz53Uc0oz01eHWH4L2AeZH9L-IaymviY-4ylJ48NLf5CeDaULyloT7jK6DU8MXSRPUhcolhG_yXOfs4S50gkc_kRxds3bxeAxVEtuZvNSu5fJ632qxK77dHLbwq3xu8R8qDnlYICKhuiPC1bnJySmOo5B5TOq0qImqehM5KB7rCnmkOgRJF4dXKPOPClKCc-QKEl27LVoAVOJyk2JJTUAoRkR9sC6SJhdXYqsjF4M019zAdMt-Y9XTCgvSKtn2mr4Ho0Twy0tBkbg2the0Mnqep1HK5vOpQPLdTr5zzzzgZd4kCHVB6R_JAp49zGq0]--></g></svg>